<mxfile host="app.diagrams.net" agent="Mozilla/5.0 (Macintosh; Intel Mac OS X 10_15_7) AppleWebKit/537.36 (KHTML, like Gecko) Chrome/130.0.0.0 Safari/537.36" version="24.8.0">
  <diagram name="Page-1" id="Sr1_EuzdWBM9Uc2kOun6">
    <mxGraphModel dx="3217" dy="1857" grid="0" gridSize="10" guides="1" tooltips="1" connect="1" arrows="1" fold="1" page="0" pageScale="1" pageWidth="850" pageHeight="1100" background="none" math="0" shadow="1">
      <root>
        <mxCell id="0" />
        <mxCell id="1" parent="0" />
        <mxCell id="quVHmLEPleR1YJUEZjZv-49" value="" style="rounded=1;whiteSpace=wrap;html=1;fillColor=#f8cecc;strokeColor=#b85450;fillStyle=auto;" parent="1" vertex="1">
          <mxGeometry x="684" width="1703" height="1397" as="geometry" />
        </mxCell>
        <mxCell id="0d5R8pZXhQQyxfGdjJ8H-10" value="Fundamental Broker&#xa;" style="shape=image;verticalLabelPosition=bottom;labelBackgroundColor=default;verticalAlign=top;aspect=fixed;imageAspect=0;image=data:image/png,iVBORw0KGgoAAAANSUhEUgAAATwAAACfCAMAAABTJJXAAAAA51BMVEX////tOzPbNC/9+fn///0we9A4ftHtNy9zod0oeNCuyOvbMywtec/9/v/z9/z6/vTsV1FJitXI2/KNtOI8gtPU4vRlmdvtMyprndxalNnhNjB1o92hv+fs8/rm7/n3+v2yzOy/1O/sLiN/quDe6fdChdPaKiLoem359O+Wueamw+npk4v42NDqZ19QjdbXY1/uhHnrV0nuUkfrYFL47uz49Onue3bohHsWcM3rRDvz5eLofW3rKhrzzcXrpqPqZl/vwb3wta/yxsPrEADz3N3ktrTrjIjdYlfxnZntbl7YaGHpWlbZIhprU6rYAAAJBElEQVR4nO2dC1viyBKGI3QCwTQzhARQ7gMIiMOKoK6sl3GPx53d2f//e7aq07khlxBBUOv1UZJO0qS/rq6q7qAqCrEWnHP85jyZTO76Xt4xOxdP9OFmqmLw5dTJotbI4M1Z1PrlfQbq5i823jORhfAuAPFYhKvEaVI8IWJILr5d9TZlXbshZMqMJflb2dq7Vm0hAWP9mA0k1iGK8yKIdwaLFpXXD/gEQbwllKUQxHuE1qViQi6PIAiCIAiCIAiCIAiCIAiCeHvYWtAjdg+Onxb8sh6MJUlAhJ2PRl/X5aLb2/V97wPs72+ptfk2nuz6vvcAzrrfDtamOO7RMzzQ7iqmdiSeEtfudn3f+wC7KsbSjj4MC2P2POaYJe2UL/H83YST4fGY2vXowzKUo7yGmP5uQv4utt1NyO4Uzv+Io93XS0a/tBB3zFJurMTVbkTaKTiv+Kzz2de7HHYdy99NPsJvKL62BTyWdqMl+Z2dCWNCWb0RKmrU4b5Nb6/ZrgcawhRuV1rpdOu07Vda88/Ner9ZypRmJtP0zjFFxW4tTGlUKv7BLRBzPovaLey1/u96kN9bUJa1QmWdKlydD5zXqWT9CppDXTdU1dD1ku2Wmf65VsuWj00YK+l6wetGqLBT9WphbahA8/c3Do83ZkcTZeFTH8b6uuqhaZohxMvBlldq5IR4hlsEr8bQNbNsWVeh3DCg2DD6UhpTdSvA0lZVvn1J1Uq+eIaWC4iF9eunW1DNbWlMf7csVLBGKV2WpLHFDcURL1fwKFedxlnObg6aaRQc28uWdNgZ5iuVsoWtzzvvheId4blDDUuHNUe9kqqGxfMNuNrBNx8GLHqjxLS7i6XPK0JhJK9qRh83QDxnI3jQUI/kjZigrdEQmy1dU62GEKSKtmNkxCkonjOG2xVL9aR+IZ5veae6ZsHl2/J6c/1dCr6Waof5XcQoBfdvtETbULz8zFEUz224bWlGGTeahqbmvEDRAMksseeLB8FjqIJFis1FlseU7FDV++Xg4Y3ixtlUSK3RzcjdTxVnDwp/x6POyZpgIUdZcfIq8eoFVezwI/B3ph9N+zpex8LiKe2Oq+li8eDNrZoJXeFdtUG8MXs27f1RLB4Uiyn4mbqdDs5uD3CzeDa+G9xddYupYlC7acR1FAZNVLVczdmbEU9UERSPlxzxbGhtOVALOq4Oph8h8ZSKoRkV3EDxvFJwEu6wZQr0RkupD/HnxvH93e392e3D4KB7Pb4apMaDyeDp+WY0OL/5Nn36cdvtfnn4PgjZXdTEspqD9ppyB8RT89mqJPtCvFrHicoVXdNDXqoFIxRFC4vXhlBQwA0Uz6s16PNsVdhcBjqjFlOixXjapX71bi56d4+Tx/vpj7vpfe958uPP6T0b3z6x+/89DXqDyd2je+4o+hpUHbIIveHuYbS1XDTHGPyAAemJ4URlMB61HawGWi/UDItXH0LwRoMsqYF6IT540bZlCHWr1stA9Xp6D1KQ4tPkcdB7HEwvnp9QPDY46z6Bhr9up1eT57PuZHD5/2c5cFN/RX3Yw5S8HhyooTzPCQ0oXq6BZPJDjJ8oBoiohSylKbtgRjxwjR3UCcUL4lpezVKxMxj6wc7GE2Xe++6od3P9/Pzw/efF1U3xenAw/nk+7l50f/08v0l1b75ew3YXDsqokTj5KxnR9DKgXdk/NySe7ooHCZsAMl/M3BQxSrWQ5TWMReJ5ludNPVTLE69iyAyvbQXsf2MwV70ihIqUiAoYMHAHKBZF0lJMHeBB6fGOE6BetIUoaKt6FOhx9HmtmktV+jxvzqDlKs6ktA9amcGK3IKweBBHnCEP4hVMW1JW3WGbxUBhm6Zpm0dwZl3ZMIz1/l7vEfdhIoHqRXF7EGjVTtCCwkkyc8XrpAEYs8LfIU09nNLUj8CnYSeExYNs0DktHG29gAH2CvkxeggxQdxCosx7D+uod5wQnPy2+s8ZVI8CgVawKM/DVxhZasdNaTA1qbl5JEMxIXWZzfMgK5T52/w8D7NFiZgSB5OfTQF+L7p6hwkJjNwVtsfB7ctZlUs2py5OkhugUFoWwjBVS3VXPUwVMWcOi8fBMxppcen86RnkxlrOYTiE7ggH8E1xGXnkHicSvnrLJ7fYCHUmP1g0t3Ua3jJw+UMIVsVBXJJ2aEOqqDt5TUC8dhrql05hvuWVMVzwuoDXQLzZftsIkW0voB2O3CW2xxg6nM5pI9MILIZiwChUfJwlKVe8KhiYJaWxcdpv5Zttu9HS/BUAFC+PV/ZLGq5YSacwV7w2XBZYioKu6Ww+UQZ4chxFvePE4Yx6i6sUWYmfP8jFUChUdUOiG20lNMMQwVnmt6aF63si9YBqClXvDM25FE7Vc7a3nhcST81lZW4XUMve2rJeJNtLzHLy2+KRm80ZahAx7rKdcGFbpNGGNz3r66ruTkJrZSdIgkidU/cE03AqQPlyp94iXUnXA+LpBibENcvQg+OUF3Rn9XXz8MuV6h2/EG+Z7dVb6TCnLwvLaBiZUlqudCosi8dtN8ja/ULHsnLpTNVbv7Hlla18xcwGVl1K6b436cnAYZC1WUqnQxECCkrbWFtR0PZWjNw52jl+b5uPHuvV6tLq9+XJHU8utb3jw3ni4ch9989tN8FSvzfX7lbG3E/EkpG7ULtoc43PwEL1lmhHtidh/HLuPHeBvwuot+s73wv45NdL9ZYqR+r58N7XWfWWjlmp3j+kHsInMzE3gnZkey4z6kXSjtRzCY3c5aEipN6+ZPu7hU/GxfXsjmzPx4u5ke3OUS/qM7WPDe8J9dawO6nerm98H2AMbe/4EEnIb+8lkQjshF5O/vkk6rHln8Tmk4eTw7X595PM1FbHxmQc3uDOCYIgCIIgCIIgCIIgCIIgCIIgCIIgCIIgCIIgCIIgCIIgCIIgCIIgCIIgCGIV9JcmXsGn+H1rgiAIgnhDPmpsxXaxreddH1U94p1Af1CHIIi3hSv4R/o53/l/CXdvIPZ9BPMDzthu/nO31PFN31v0H7QXvnfei3vM3D6J/E8s3xFkAxvkA9rHKrY/14oJn7u5EIgA+zIU4t7HBt0T/w/Cz+G1V7f7KwAAAABJRU5ErkJggg==;imageBorder=default;" parent="1" vertex="1">
          <mxGeometry x="2506.21" y="1173" width="264.34" height="133" as="geometry" />
        </mxCell>
        <mxCell id="0d5R8pZXhQQyxfGdjJ8H-30" value="Fundamental Data Source" style="shape=image;verticalLabelPosition=bottom;labelBackgroundColor=default;verticalAlign=top;aspect=fixed;imageAspect=0;image=data:image/png,iVBORw0KGgoAAAANSUhEUgAAAOAAAADgCAMAAAAt85rTAAAAulBMVEX///8AAAD5ugD//+3s3ob+/+LxvBX8/PzszGH5+fkyMjLd3d01NTUEBASrq6t0dHTr6+u5ubmzs7PV1dXOzs4NDQ3j4+Pb29vz8/NXV1c/Pz9jY2PBwcFpaWmGhoaXl5dHR0dMTEyOjo4rKyt6enqcnJylpaUmJiYUFBT+/vceHh5aWlrHx8f//+T9//nlx3btyln/9dP/9sv0th34vwDmujH/8q7/+P/jvEP+9774/vD1///u3Z3x3YA/QTMeAAAFVklEQVR4nO2aC3vaNhSGpdFMlcHBYDCGYAjkRhpCL1vXLWn//9/aOTLYkmzaLHGeed33PnkSW9bt8zmSjuQIAQAAAAAAAAAAAAAAAAAAAAAAAAAAAAAAAAAAAAAAAAAAAAAAAAAAAAAAAAAAAAD4v6OIaqJ2nitRzVI+q0k3j/KLY60Wf+vq4BR9tPA/JG/Cwam7vgvffaL3b+RoH1XRaP4yKs81V9GMwmN9d6+Om+JIehpPohd06vlFa4h7PkHfery+CC7mdeWyoNcbeX0xFu0ue9IwWya5nb2S28BqbLrY6oqt01kvmKYNiGOGsko5BkVAt/1KIeo05zv1BJJrTc7sis669oDec+q1Ri/QyxNx8qQReapGYGgLvKDbowKHlfQFFQ/DfTV8sa4TGNqNjaVceBaMOEe3AXkscFA2VWC1910LDr20dCZlaNUzpptp6ruoZ8FxOJYLd+A1KFArHY+YmNtamstR9CyBaZoG1FtKzgY0+JIhOWtI94HW7hgzAueDnGVg3uzA8VLjog1ZsJjppWkmT3zqGHQEajE15uvz1GKqSIxEmYkagYXF9CU7z7lnwQYFHsRwM0YgrYPPEajEFauRc7OMKa7GDHCSPHTHYS5Qi0OocMZ5YjtHgwJLLAvaPN2CiRGztU2hxdwkujN+LtAuSIa/tnO0U+CCDXjqjCUy5TX3fukUdl2UeEcvYW3naKdAmg/lVDjRGzv7jBRe1LiolY2XooWdo4UCldiyqUbVCuacHtt6vElGa3bjtruoEmu6v/FDEp6y2D5LO2BzBJKNT1ng6JVm0ZIXCaT7lfGz6s5A9E0sdEygEBPWF6h2C6TuUhBTiU0FT6Qcmc2qAg/PKZIaj19voS956STDAud1FuRgN7D7b1xydZ5zY2KBvhuTt1bgoG4rNzAChWvBMmA1wY87+bZQoGIXDeVVnYuu8+WjTLKDbbP1uBLesUj7BJKOjO6zOoH72cez4MzAwfkqreyJ2ydQ5XOJrB7DqIj9cehbcEPKldAUnstNpPxi7RMoOKIcs496+UwEJ2Xkj8FNfh/zELykxd4t1kqB4pwVRtoJ1XS+d71zCrPAcV6NuONqEt+zWyTQ6tmcpZw71qBY1AwzZy9kC1QTriZr3xgUoivNumehVsZYdl91umJ9d66FLIEpbZIJP4T9twRSXCzmMdmF5pRLjj+cfZ5KeD8hg8l+I0uiRjectEndIVYKFPtRuFLtWOhptjvdv26zR3ACMHo4MKdMMtt75CjjKGVMcXT1yKIQmJ9zbFuy0KsR2ygbDPpmhd7aPVdk3uHhUG2VZSuWQfLohdQcOpUCYw7VAncifSWBoRxUI62edS6qzAmEUcDHmZl/rM2GZVWhFaVsRpWPN7xijovtUm7CoR2s6oiTGhdomqlgH/wqPlgyYSR3fVoXWUd9Iyzk32Q9eamrnxpyCxYCzYHlhT0G1esIrA+W2UWL4wRytXmwjyKv00rYYgZSclkEmpt1IlJdycYC3x0sZk7VpHtQr6N8dWyWNEqSmg15miRJ0UXzmuOrxeI6Np9VKpXkU0V3uFwsroZJmeKSdJO0SKeQLbHbMGWoLy/4OgV+wFM+3x37Kvzf4GkKAQAA/Byo3e7h/uSEftpFR1HPdk0o3N2/f/vhbet4//F219D/O3367Zf28fvnPzriy5cm9O0+ff61hfz518NjMwbcdb6++fambXz72nl8bGYM3t7u7k86D512cdLhnjWhT+xoIm2mpiYh4x35R04AAAAAAAAAAAAAAAAAAAAAAAAAAAAAAAAAAAAAAAAAAAAAAAAAAAAAAAAAAAAAAPiJ+BuBLF5a6m6C1AAAAABJRU5ErkJggg==;imageBorder=default;perimeterSpacing=0;imageBackground=none;" parent="1" vertex="1">
          <mxGeometry x="2565.25" y="460" width="148" height="148" as="geometry" />
        </mxCell>
        <mxCell id="0d5R8pZXhQQyxfGdjJ8H-64" value="&lt;b&gt;Mission Control&lt;/b&gt;" style="sketch=0;points=[[0,0,0],[0.25,0,0],[0.5,0,0],[0.75,0,0],[1,0,0],[0,1,0],[0.25,1,0],[0.5,1,0],[0.75,1,0],[1,1,0],[0,0.25,0],[0,0.5,0],[0,0.75,0],[1,0.25,0],[1,0.5,0],[1,0.75,0]];points=[[0,0,0],[0.25,0,0],[0.5,0,0],[0.75,0,0],[1,0,0],[0,1,0],[0.25,1,0],[0.5,1,0],[0.75,1,0],[1,1,0],[0,0.25,0],[0,0.5,0],[0,0.75,0],[1,0.25,0],[1,0.5,0],[1,0.75,0]];outlineConnect=0;fontColor=#232F3E;fillColor=#E7157B;strokeColor=#ffffff;dashed=0;verticalLabelPosition=bottom;verticalAlign=top;align=center;html=1;fontSize=12;fontStyle=0;aspect=fixed;shape=mxgraph.aws4.resourceIcon;resIcon=mxgraph.aws4.control_tower;" parent="1" vertex="1">
          <mxGeometry x="1581" y="581" width="78" height="78" as="geometry" />
        </mxCell>
        <mxCell id="0d5R8pZXhQQyxfGdjJ8H-69" value="Audit" style="shape=datastore;whiteSpace=wrap;html=1;" parent="1" vertex="1">
          <mxGeometry x="1519" y="1244" width="106" height="131" as="geometry" />
        </mxCell>
        <mxCell id="quVHmLEPleR1YJUEZjZv-6" value="" style="group;glass=0;rounded=0;shadow=0;" parent="1" vertex="1" connectable="0">
          <mxGeometry x="769" y="95" width="356.5" height="374" as="geometry" />
        </mxCell>
        <mxCell id="quVHmLEPleR1YJUEZjZv-1" value="" style="rounded=1;whiteSpace=wrap;html=1;fillColor=#d5e8d4;strokeColor=#82b366;" parent="quVHmLEPleR1YJUEZjZv-6" vertex="1">
          <mxGeometry width="356.5" height="374" as="geometry" />
        </mxCell>
        <mxCell id="0d5R8pZXhQQyxfGdjJ8H-1" value="" style="dashed=0;outlineConnect=0;html=1;align=center;labelPosition=center;verticalLabelPosition=bottom;verticalAlign=top;shape=mxgraph.webicons.rss;fillColor=#FDE532;gradientColor=#F4600D" parent="quVHmLEPleR1YJUEZjZv-6" vertex="1">
          <mxGeometry x="69.25" y="153" width="30" height="30" as="geometry" />
        </mxCell>
        <mxCell id="0d5R8pZXhQQyxfGdjJ8H-14" style="edgeStyle=orthogonalEdgeStyle;rounded=0;orthogonalLoop=1;jettySize=auto;html=1;" parent="quVHmLEPleR1YJUEZjZv-6" source="0d5R8pZXhQQyxfGdjJ8H-6" target="0d5R8pZXhQQyxfGdjJ8H-13" edge="1">
          <mxGeometry relative="1" as="geometry">
            <mxPoint x="129.25" y="253" as="targetPoint" />
          </mxGeometry>
        </mxCell>
        <mxCell id="0d5R8pZXhQQyxfGdjJ8H-17" style="edgeStyle=orthogonalEdgeStyle;rounded=0;orthogonalLoop=1;jettySize=auto;html=1;entryX=0.494;entryY=1.027;entryDx=0;entryDy=0;entryPerimeter=0;fillColor=#d5e8d4;strokeColor=#82b366;" parent="quVHmLEPleR1YJUEZjZv-6" source="0d5R8pZXhQQyxfGdjJ8H-6" target="0d5R8pZXhQQyxfGdjJ8H-18" edge="1">
          <mxGeometry relative="1" as="geometry">
            <mxPoint x="239.25" y="123" as="targetPoint" />
          </mxGeometry>
        </mxCell>
        <mxCell id="0d5R8pZXhQQyxfGdjJ8H-6" value="Poll newly &lt;br&gt;published articles" style="verticalLabelPosition=bottom;html=1;verticalAlign=top;strokeWidth=2;shape=mxgraph.lean_mapping.physical_pull;pointerEvents=1;fillColor=#d5e8d4;strokeColor=#82b366;" parent="quVHmLEPleR1YJUEZjZv-6" vertex="1">
          <mxGeometry x="219.25" y="178" width="40" height="40" as="geometry" />
        </mxCell>
        <mxCell id="0d5R8pZXhQQyxfGdjJ8H-13" value="Filter out unique&amp;nbsp;&lt;div&gt;potentially useful news&lt;/div&gt;" style="verticalLabelPosition=bottom;outlineConnect=0;align=center;dashed=0;html=1;verticalAlign=top;shape=mxgraph.pid.misc.filter;" parent="quVHmLEPleR1YJUEZjZv-6" vertex="1">
          <mxGeometry x="224.94" y="292" width="29.06" height="28" as="geometry" />
        </mxCell>
        <mxCell id="0d5R8pZXhQQyxfGdjJ8H-18" value="Live News Feed" style="html=1;verticalLabelPosition=bottom;align=center;labelBackgroundColor=#ffffff;verticalAlign=top;strokeWidth=2;strokeColor=#0080F0;shadow=0;dashed=0;shape=mxgraph.ios7.icons.monitor;" parent="quVHmLEPleR1YJUEZjZv-6" vertex="1">
          <mxGeometry x="197.75" y="14" width="83" height="71" as="geometry" />
        </mxCell>
        <mxCell id="quVHmLEPleR1YJUEZjZv-2" value="&lt;b&gt;NEWS-GATEWAY&lt;/b&gt;" style="text;html=1;align=center;verticalAlign=middle;resizable=0;points=[];autosize=1;strokeColor=none;fillColor=none;" parent="quVHmLEPleR1YJUEZjZv-6" vertex="1">
          <mxGeometry x="36.25" y="14" width="117" height="26" as="geometry" />
        </mxCell>
        <mxCell id="0d5R8pZXhQQyxfGdjJ8H-7" style="edgeStyle=orthogonalEdgeStyle;rounded=0;orthogonalLoop=1;jettySize=auto;html=1;fillColor=#d5e8d4;strokeColor=#82b366;entryX=1;entryY=0.5;entryDx=0;entryDy=0;strokeWidth=2;" parent="1" source="0d5R8pZXhQQyxfGdjJ8H-6" target="ckFxBgVPUirz9f_X5Qli-5" edge="1">
          <mxGeometry relative="1" as="geometry">
            <mxPoint x="658" y="628" as="targetPoint" />
          </mxGeometry>
        </mxCell>
        <mxCell id="0d5R8pZXhQQyxfGdjJ8H-19" value="RSS Feed" style="edgeLabel;html=1;align=center;verticalAlign=middle;resizable=0;points=[];" parent="0d5R8pZXhQQyxfGdjJ8H-7" vertex="1" connectable="0">
          <mxGeometry x="0.1395" relative="1" as="geometry">
            <mxPoint x="95" y="-1" as="offset" />
          </mxGeometry>
        </mxCell>
        <mxCell id="quVHmLEPleR1YJUEZjZv-9" value="" style="group" parent="1" vertex="1" connectable="0">
          <mxGeometry x="1841.5" y="461" width="348" height="274" as="geometry" />
        </mxCell>
        <mxCell id="quVHmLEPleR1YJUEZjZv-5" value="" style="rounded=1;whiteSpace=wrap;html=1;fillColor=#dae8fc;strokeColor=#6c8ebf;" parent="quVHmLEPleR1YJUEZjZv-9" vertex="1">
          <mxGeometry width="348" height="274" as="geometry" />
        </mxCell>
        <mxCell id="0d5R8pZXhQQyxfGdjJ8H-29" value="Fundamental Data Provider" style="rounded=1;whiteSpace=wrap;html=1;" parent="quVHmLEPleR1YJUEZjZv-9" vertex="1">
          <mxGeometry x="120" y="38" width="120" height="70" as="geometry" />
        </mxCell>
        <mxCell id="quVHmLEPleR1YJUEZjZv-3" value="Market Data Consumer" style="rounded=1;whiteSpace=wrap;html=1;" parent="quVHmLEPleR1YJUEZjZv-9" vertex="1">
          <mxGeometry x="120" y="157" width="120" height="60" as="geometry" />
        </mxCell>
        <mxCell id="quVHmLEPleR1YJUEZjZv-8" value="&lt;b&gt;MARKET-GATEWAY&lt;/b&gt;&lt;div&gt;&lt;br&gt;&lt;/div&gt;" style="text;html=1;align=center;verticalAlign=middle;resizable=0;points=[];autosize=1;strokeColor=none;fillColor=none;" parent="quVHmLEPleR1YJUEZjZv-9" vertex="1">
          <mxGeometry x="20" y="8" width="131" height="41" as="geometry" />
        </mxCell>
        <mxCell id="0d5R8pZXhQQyxfGdjJ8H-31" style="edgeStyle=orthogonalEdgeStyle;rounded=0;orthogonalLoop=1;jettySize=auto;html=1;entryX=0;entryY=0.5;entryDx=0;entryDy=0;fillColor=#d5e8d4;strokeColor=#82b366;strokeWidth=2;" parent="1" source="0d5R8pZXhQQyxfGdjJ8H-29" target="0d5R8pZXhQQyxfGdjJ8H-30" edge="1">
          <mxGeometry relative="1" as="geometry" />
        </mxCell>
        <mxCell id="quVHmLEPleR1YJUEZjZv-14" value="" style="group" parent="1" vertex="1" connectable="0">
          <mxGeometry x="1269" y="85" width="447" height="271" as="geometry" />
        </mxCell>
        <mxCell id="quVHmLEPleR1YJUEZjZv-12" value="" style="rounded=1;whiteSpace=wrap;html=1;fillColor=#f5f5f5;strokeColor=#666666;fontColor=#333333;" parent="quVHmLEPleR1YJUEZjZv-14" vertex="1">
          <mxGeometry x="-2" width="447" height="271" as="geometry" />
        </mxCell>
        <mxCell id="0d5R8pZXhQQyxfGdjJ8H-22" value="Fundamental Analysis Models" style="sketch=0;outlineConnect=0;fontColor=#232F3E;gradientColor=none;fillColor=#01A88D;strokeColor=none;dashed=0;verticalLabelPosition=bottom;verticalAlign=top;align=center;html=1;fontSize=12;fontStyle=0;aspect=fixed;pointerEvents=1;shape=mxgraph.aws4.sagemaker_model;" parent="quVHmLEPleR1YJUEZjZv-14" vertex="1">
          <mxGeometry x="71" y="59" width="64" height="64" as="geometry" />
        </mxCell>
        <mxCell id="0d5R8pZXhQQyxfGdjJ8H-26" value="Fetch stocks to inspect &lt;br&gt;based on predefined conditions" style="verticalLabelPosition=bottom;html=1;verticalAlign=top;strokeWidth=2;shape=mxgraph.lean_mapping.physical_pull;pointerEvents=1;" parent="quVHmLEPleR1YJUEZjZv-14" vertex="1">
          <mxGeometry x="303" y="71" width="40" height="40" as="geometry" />
        </mxCell>
        <mxCell id="0d5R8pZXhQQyxfGdjJ8H-40" value="Model Trainer" style="whiteSpace=wrap;html=1;rounded=1;" parent="quVHmLEPleR1YJUEZjZv-14" vertex="1">
          <mxGeometry x="166" y="185" width="120" height="60" as="geometry" />
        </mxCell>
        <mxCell id="quVHmLEPleR1YJUEZjZv-11" value="" style="verticalLabelPosition=bottom;html=1;verticalAlign=top;strokeWidth=2;shape=mxgraph.lean_mapping.physical_pull;pointerEvents=1;" parent="quVHmLEPleR1YJUEZjZv-14" vertex="1">
          <mxGeometry x="300" y="195" width="40" height="40" as="geometry" />
        </mxCell>
        <mxCell id="quVHmLEPleR1YJUEZjZv-13" value="&lt;b&gt;FUNDASIGHT&lt;/b&gt;" style="text;html=1;align=center;verticalAlign=middle;resizable=0;points=[];autosize=1;strokeColor=none;fillColor=none;" parent="quVHmLEPleR1YJUEZjZv-14" vertex="1">
          <mxGeometry x="17" y="11" width="97" height="26" as="geometry" />
        </mxCell>
        <mxCell id="0d5R8pZXhQQyxfGdjJ8H-28" style="edgeStyle=orthogonalEdgeStyle;rounded=0;orthogonalLoop=1;jettySize=auto;html=1;" parent="quVHmLEPleR1YJUEZjZv-14" source="0d5R8pZXhQQyxfGdjJ8H-26" target="0d5R8pZXhQQyxfGdjJ8H-22" edge="1">
          <mxGeometry relative="1" as="geometry" />
        </mxCell>
        <mxCell id="0d5R8pZXhQQyxfGdjJ8H-42" style="edgeStyle=orthogonalEdgeStyle;rounded=0;orthogonalLoop=1;jettySize=auto;html=1;dashed=1;exitX=0;exitY=0.5;exitDx=0;exitDy=0;" parent="quVHmLEPleR1YJUEZjZv-14" source="0d5R8pZXhQQyxfGdjJ8H-40" target="0d5R8pZXhQQyxfGdjJ8H-22" edge="1">
          <mxGeometry relative="1" as="geometry">
            <Array as="points">
              <mxPoint x="166" y="105" />
            </Array>
          </mxGeometry>
        </mxCell>
        <mxCell id="0d5R8pZXhQQyxfGdjJ8H-24" style="edgeStyle=orthogonalEdgeStyle;rounded=0;orthogonalLoop=1;jettySize=auto;html=1;exitX=0.75;exitY=0;exitDx=0;exitDy=0;" parent="1" source="0d5R8pZXhQQyxfGdjJ8H-29" target="0d5R8pZXhQQyxfGdjJ8H-22" edge="1">
          <mxGeometry relative="1" as="geometry">
            <mxPoint x="1160" y="395" as="sourcePoint" />
            <Array as="points">
              <mxPoint x="2052" y="122" />
              <mxPoint x="1372" y="122" />
            </Array>
          </mxGeometry>
        </mxCell>
        <mxCell id="0d5R8pZXhQQyxfGdjJ8H-67" style="edgeStyle=orthogonalEdgeStyle;rounded=0;orthogonalLoop=1;jettySize=auto;html=1;fillColor=#e1d5e7;strokeColor=#9673a6;dashed=1;dashPattern=8 8;strokeWidth=2;" parent="1" source="0d5R8pZXhQQyxfGdjJ8H-64" target="0d5R8pZXhQQyxfGdjJ8H-22" edge="1">
          <mxGeometry relative="1" as="geometry">
            <Array as="points">
              <mxPoint x="1333" y="630" />
              <mxPoint x="1333" y="176" />
            </Array>
          </mxGeometry>
        </mxCell>
        <mxCell id="0d5R8pZXhQQyxfGdjJ8H-41" value="" style="edgeStyle=orthogonalEdgeStyle;rounded=0;orthogonalLoop=1;jettySize=auto;html=1;entryX=0.98;entryY=0.5;entryDx=0;entryDy=0;exitX=0.75;exitY=0;exitDx=0;exitDy=0;" parent="1" source="0d5R8pZXhQQyxfGdjJ8H-29" target="quVHmLEPleR1YJUEZjZv-11" edge="1">
          <mxGeometry relative="1" as="geometry" />
        </mxCell>
        <mxCell id="quVHmLEPleR1YJUEZjZv-29" value="" style="group;rounded=0;strokeColor=none;" parent="1" vertex="1" connectable="0">
          <mxGeometry x="1736" y="1000" width="559" height="289" as="geometry" />
        </mxCell>
        <mxCell id="quVHmLEPleR1YJUEZjZv-15" value="" style="rounded=1;whiteSpace=wrap;html=1;fillColor=#fff2cc;strokeColor=#d6b656;container=0;" parent="quVHmLEPleR1YJUEZjZv-29" vertex="1">
          <mxGeometry x="7" width="552" height="289" as="geometry" />
        </mxCell>
        <mxCell id="0d5R8pZXhQQyxfGdjJ8H-34" value="Trade Executor" style="rounded=1;whiteSpace=wrap;html=1;container=0;" parent="quVHmLEPleR1YJUEZjZv-29" vertex="1">
          <mxGeometry x="387" y="34" width="120" height="60" as="geometry" />
        </mxCell>
        <mxCell id="0d5R8pZXhQQyxfGdjJ8H-37" value="Execute or Inform?" style="rhombus;whiteSpace=wrap;html=1;container=0;" parent="quVHmLEPleR1YJUEZjZv-29" vertex="1">
          <mxGeometry x="76" y="84" width="128" height="80" as="geometry" />
        </mxCell>
        <mxCell id="0d5R8pZXhQQyxfGdjJ8H-44" value="List of actionable Stocks&lt;br&gt;with data and rationale" style="html=1;verticalLabelPosition=bottom;align=center;labelBackgroundColor=#ffffff;verticalAlign=top;strokeWidth=2;strokeColor=#0080F0;shadow=0;dashed=0;shape=mxgraph.ios7.icons.monitor;container=0;" parent="quVHmLEPleR1YJUEZjZv-29" vertex="1">
          <mxGeometry x="387" y="149" width="110" height="90" as="geometry" />
        </mxCell>
        <mxCell id="quVHmLEPleR1YJUEZjZv-16" value="&lt;b&gt;TRADING-ENGINE&lt;/b&gt;" style="text;html=1;align=center;verticalAlign=middle;whiteSpace=wrap;rounded=0;container=0;" parent="quVHmLEPleR1YJUEZjZv-29" vertex="1">
          <mxGeometry width="170" height="30" as="geometry" />
        </mxCell>
        <mxCell id="0d5R8pZXhQQyxfGdjJ8H-38" style="edgeStyle=orthogonalEdgeStyle;rounded=0;orthogonalLoop=1;jettySize=auto;html=1;entryX=0;entryY=0.5;entryDx=0;entryDy=0;exitX=0.5;exitY=0;exitDx=0;exitDy=0;" parent="quVHmLEPleR1YJUEZjZv-29" source="0d5R8pZXhQQyxfGdjJ8H-37" target="0d5R8pZXhQQyxfGdjJ8H-34" edge="1">
          <mxGeometry relative="1" as="geometry" />
        </mxCell>
        <mxCell id="quVHmLEPleR1YJUEZjZv-28" value="Execute" style="edgeLabel;html=1;align=center;verticalAlign=middle;resizable=0;points=[];" parent="0d5R8pZXhQQyxfGdjJ8H-38" vertex="1" connectable="0">
          <mxGeometry x="0.11" y="-2" relative="1" as="geometry">
            <mxPoint x="-22" y="-2" as="offset" />
          </mxGeometry>
        </mxCell>
        <mxCell id="0d5R8pZXhQQyxfGdjJ8H-49" style="edgeStyle=orthogonalEdgeStyle;rounded=0;orthogonalLoop=1;jettySize=auto;html=1;exitX=0.5;exitY=1;exitDx=0;exitDy=0;entryX=0.005;entryY=0.406;entryDx=0;entryDy=0;entryPerimeter=0;" parent="quVHmLEPleR1YJUEZjZv-29" source="0d5R8pZXhQQyxfGdjJ8H-37" target="0d5R8pZXhQQyxfGdjJ8H-44" edge="1">
          <mxGeometry relative="1" as="geometry">
            <mxPoint x="385" y="205" as="targetPoint" />
            <Array as="points" />
          </mxGeometry>
        </mxCell>
        <mxCell id="0d5R8pZXhQQyxfGdjJ8H-50" value="Inform" style="edgeLabel;html=1;align=center;verticalAlign=middle;resizable=0;points=[];container=0;" parent="0d5R8pZXhQQyxfGdjJ8H-49" vertex="1" connectable="0">
          <mxGeometry x="-0.9007" y="-1" relative="1" as="geometry">
            <mxPoint x="108" y="7" as="offset" />
          </mxGeometry>
        </mxCell>
        <mxCell id="0d5R8pZXhQQyxfGdjJ8H-68" style="edgeStyle=orthogonalEdgeStyle;rounded=0;orthogonalLoop=1;jettySize=auto;html=1;fillColor=#e1d5e7;strokeColor=#9673a6;dashed=1;dashPattern=8 8;entryX=0;entryY=0;entryDx=0;entryDy=0;strokeWidth=2;" parent="1" source="0d5R8pZXhQQyxfGdjJ8H-64" target="0d5R8pZXhQQyxfGdjJ8H-37" edge="1">
          <mxGeometry relative="1" as="geometry">
            <Array as="points">
              <mxPoint x="1620" y="1104" />
            </Array>
          </mxGeometry>
        </mxCell>
        <mxCell id="0d5R8pZXhQQyxfGdjJ8H-35" style="edgeStyle=orthogonalEdgeStyle;rounded=0;orthogonalLoop=1;jettySize=auto;html=1;entryX=0;entryY=0.5;entryDx=0;entryDy=0;exitX=1;exitY=0.75;exitDx=0;exitDy=0;fillColor=#d5e8d4;strokeColor=#82b366;strokeWidth=2;" parent="1" source="0d5R8pZXhQQyxfGdjJ8H-34" target="0d5R8pZXhQQyxfGdjJ8H-10" edge="1">
          <mxGeometry relative="1" as="geometry">
            <Array as="points">
              <mxPoint x="2373" y="1079" />
              <mxPoint x="2373" y="1240" />
            </Array>
          </mxGeometry>
        </mxCell>
        <mxCell id="0d5R8pZXhQQyxfGdjJ8H-66" style="edgeStyle=orthogonalEdgeStyle;rounded=0;orthogonalLoop=1;jettySize=auto;html=1;entryX=0.5;entryY=0;entryDx=0;entryDy=0;fillColor=#e1d5e7;strokeColor=#9673a6;dashed=1;dashPattern=8 8;exitX=1;exitY=0.75;exitDx=0;exitDy=0;exitPerimeter=0;strokeWidth=2;" parent="1" source="0d5R8pZXhQQyxfGdjJ8H-64" target="0d5R8pZXhQQyxfGdjJ8H-34" edge="1">
          <mxGeometry relative="1" as="geometry">
            <Array as="points">
              <mxPoint x="1731" y="639" />
              <mxPoint x="1731" y="758" />
              <mxPoint x="2183" y="758" />
            </Array>
          </mxGeometry>
        </mxCell>
        <mxCell id="0d5R8pZXhQQyxfGdjJ8H-53" style="edgeStyle=orthogonalEdgeStyle;rounded=0;orthogonalLoop=1;jettySize=auto;html=1;entryX=1;entryY=0.5;entryDx=0;entryDy=0;exitX=0.5;exitY=0;exitDx=0;exitDy=0;exitPerimeter=0;fillColor=#d5e8d4;strokeColor=#82b366;" parent="1" source="0d5R8pZXhQQyxfGdjJ8H-51" target="quVHmLEPleR1YJUEZjZv-3" edge="1">
          <mxGeometry relative="1" as="geometry">
            <mxPoint x="1643" y="351" as="targetPoint" />
            <Array as="points">
              <mxPoint x="2638" y="648" />
            </Array>
          </mxGeometry>
        </mxCell>
        <mxCell id="0d5R8pZXhQQyxfGdjJ8H-55" value="Live Market &lt;br&gt;Intraday Feed" style="edgeLabel;html=1;align=center;verticalAlign=middle;resizable=0;points=[];" parent="0d5R8pZXhQQyxfGdjJ8H-53" vertex="1" connectable="0">
          <mxGeometry x="0.036" relative="1" as="geometry">
            <mxPoint x="140" y="100" as="offset" />
          </mxGeometry>
        </mxCell>
        <mxCell id="quVHmLEPleR1YJUEZjZv-31" value="" style="group" parent="1" vertex="1" connectable="0">
          <mxGeometry x="2555.01" y="957" width="166.75" height="99.75" as="geometry" />
        </mxCell>
        <mxCell id="quVHmLEPleR1YJUEZjZv-19" value="" style="group" parent="quVHmLEPleR1YJUEZjZv-31" vertex="1" connectable="0">
          <mxGeometry y="49.75" width="166.75" height="50" as="geometry" />
        </mxCell>
        <mxCell id="0d5R8pZXhQQyxfGdjJ8H-11" value="Technical Broker" style="shape=image;verticalLabelPosition=bottom;labelBackgroundColor=default;verticalAlign=top;aspect=fixed;imageAspect=0;image=data:image/png,iVBORw0KGgoAAAANSUhEUgAAAOEAAADhCAMAAAAJbSJIAAAA8FBMVEVDFlv///9EFVo5AFeLfJX+/v////1BF1s0AE/HyNM5AFOekqg1AFI9BlhCFlx0XoSFdJP5+fkgAEVBFl4mAEj///pIGGF8ZYo/F1pFFFsuAEs8AFJEFlhAD1gyAFAlAEXLwdL07fXh2eTDtsmnmLBAEFxBAFdhO3OUiaGdlauOeZ5gQHR1XIhlSnhUMGp4XIJTKm7NztiLgpigka+yprwcAD/m3OvBusi7qseThKLIu8+yqbupna+AaJUmAE7q5OtJI2CaiapVOGhxVoZWNHN/ZJARADhOEGY+DWFOIGDr4+uDcJXYzt/Hz9R/bo/o6Ol8MKvJAAAJnUlEQVR4nO2cC1vbuBKGLbmxjbFFY5kQ21JCLoYCgbJLUjYNB9qFbsvlLP//3xzZucmpI6dN6l048z5tH0zGtj5dRqORUk0DAAAAAAAAAAAAAAAAAAAAAAAAAAAAAAAAAAAAAAAAAAAAAAAAAAAAAAAAAAAAAAAAgFcEI8Sc/kwIq6tssfQxIZjWAzL7Ba5TOv3ZDII6JQE/sFM41xhjWkA2XPQVEa+N3SkHLlXZ0sRiCta0QMPzeyOXTe1wEDsNTz988+7o6Ojd8clBs2GzgJqqZ/86TMIPdyb03u+5Klt3r9eb2p5y0wwIPpte77zfOeQTO9s7725V0Zzq/tF5M1L2j18Ho05XKouusnUkw98sTFhg/y796sJOrSxn+ya5NIxKBSHx1zCSy5sLxwpKkbQADqz+tIiiKA2VrVBYmdpuWSbWsP5mei0+2HYY0exQrrAsHd3WCBX3lQomTmdWBAMNVLZFCnWNhntVZCyViC6asRaX3lsbT3OFlabKskihTQadtJ6WYaDWoUXK7qt1b1Zqw2iHKtMihZb/IZG3VKEYmAYaKivxF2Dyr1IZLh2VrUqhGMPb3o2qh06b8Y9mEARlzhzRcPb2Crr6aYWCYduYf76UXbTfpEw5724WEu5L9XvLVbYFbSh8TKWwDStGBX1sljr5O6JWZwpDpRdQKxxTpNBI2rkbljhj2NvS69WOpqiXTmpponN/e+dcd+LD41E71Z8Zoj3dNMtqR/9ZevWVMqRZSSFKpbT/41u2y3kQ8Mi6jq9S3bN7K4ah41grZyzaQyT1rFq8tsJkKH449W2arCTEioJSwojtd5NP5pWA9q8xLqcRQ+EeZuOw7auHx2q9FF14XMSswr7GWICFUopZ46w17ytJM7/XS5n4STiaFa2yi4aR+dOeZlJy8efUyrs39ttJ+85U3jTLGIhMv50LFOPkGquj4sI2TAKaMz235IwOEomz/oL23BIaMY7mE7So3atIRP4q+xXaEJ3oLPdek8V+S55N2n4JCv2bTPWHZuCeqewLFRro2F6ycghMHH+S3HYFnSuji/URL/Q+SJPUbrI0sLtnqtcWe5onX/VO67Mc1Y1yx+vmoK7+IAdZRuuaxDqqraPQQOpmYd6zZN3yNqtoEevP6jjUmHLLmX+5nkLUt5SeyoyOZWvlu9aFD4bpsJkL7PhU7xW8tVChzpUzAKYDedZ/Z29YVZJXExGGmIZ44+whUzIDPTcJbuyuqfC3BlP6RxOnOaG0WsW80bEKfPePE2ARRuHIP9tHi9TiwGsX9ZwihW+jIH+qmCl0T2cKRXAn3JLS/segApO4Tth400YLi5xddBsRf5REjmsp/EYKShyQ66lt8qANK3T9pvd1p/+ExvFLRuKjYzaSEHw9hVWPUWXmngQsnC5lkuDmQNvk+sLtVasoh8SdDkMaPorCi57z0wpF7TypV5cp1sckRzzhjm9yK8P9kqcvHRTHYV0I3K0YayrsKJM8Y+yRNERON6ow2luWB+tZmn8xTi+soVAwWkXhlaTwi002OA6XKax+srnXSReu67Zhf4X5LVE4e/eevkmF7oLCJJsiRvtlGPPzm0kyyiieLYylCg3UX60N58/ouZvMmy4qTP1Kdc+n2NlHkzznWgoR+rhCKO2M0DwYPuGbzGQsKtwVV6PriNLA2kJj512osKFQKOqorVxYjLH2pWec44360u/GYSe2CCGaKRRO5kdhcK9S+FWp0EAr7EgMWlIwbG1a4e54LTGWM3Kd8ShnaRtOe9qdQiH/VBDTHHKiLDJl9W+zd1UKNrp+GOFLk+E2HgSXj80IT+IJnFG4p/CHbk/qBnkK+xFVrp6wqc82SURBVokQfgB7b6Liqb/TaNiYTAIsEjiX83pFVwqFdr9AYWugzp9h6rel2lzF9/4A8ell/2h4UvNDy62bRCOYpRJNSSFS+8NmW8rq5q4Pvxwo5zcS389MxZNU/eVn4I6THm1ZIKhHV1IZDd80a7n3s7gmi8lV+KDeVML+RykrrD4zsDkC0x7Khdw7yF+VUlPa71+i0EC/Kzc+4sN5NxeB+vWvUbQIJvxOLmXbz9+9jPlZprmWZBOJarbxbgxJ4fHmkxi5MMoamaLvRPn+0MsmPvLbEN0oZv3mH0jKeaPGBmPSApptaSY3WmFyYi1jwEyqDZ5QhmU7M21PuDCWPcPGKKaY+J8zhiOnvHNuSTQs5cAePG7WMvXLAu49LZyxWLp/eOO4tJ5dMzBmaoF3kbXTeXn7wPxcSkWLnx70aMHg+s+WvP+nUijC+dMwyGYnaIz1661sDfUdWl4v1ZKNr1kJE2cw9KKZx+C2X0vPAcljSNGG4lEd3co4HDPyH1soc4phtxHUSzw5ZP+9uLJqXR3+5TuW44SD83cLI7BIYULnbmDZMaWExK7V8IYfFupg47N9AaT5bCyUQHCz9fFyK1u0lRWKCG40vPtqWfb5aXcfLaQvK2LhXapAjfLbTOnE6t/YNWbFyT0FpFJYWTh5sZi8FHNKiWMwAbPwMlPCSrrqr6QHZCr5+Z28fOlM0eTESSVZy+Scs2npJR/ATPCfUdaTLJIch1VG3gY6vkGrnIlC1W88KPHU1wROqgVn0kTJdOkyR+G2rzxbOjV75pzh8hVq7n1VWTohkN6r1odCoaU/5N2a5cnngbizfIVmrD8rS/b87eCT1AvzFEam//2u1gKffUw0s+yT0GO430+8npF17cl10nQdD4vYZ/7RVgOz784Iixj3MRWbHpyRHpNkZZJB8EQ3u67/Uazzp8WpK5EnPNDDbRgkZynkXFvw/Slo8Qy70U9vqsgKJ960fXr9i89fFFHn/klmmYvGxWw/+q5Zp/xe+v1/G9jMU0hYI7pqift251WVOulK5zDkuOR58Duoxq3rvzuZAfnUvfdtTSwOxEry+PHx7YQep3m9VEikzPYP+79l6qk96jVtLp7xD31vJgO2Hb9x19vudrvb724/NUN71rOIPSc9xZinMIXb4aB2Mtzu9vvdYa/mhbbyyzilQwjnupNkrlz1ccylCpOmjF3xDMuxxTJF+vbYvwNKNJygCb+uNFQo1MaPwDigNYpLOxC8IkxUekKNaurvtygUCk+bVA9J/iUM52co//0o2/BVAApfPqDw5QMKXz6g8OUDCl8+oPDlAwpfPq9eIdbsN9JXnI9en0Jm6vP/28RA3denENcP3qLqlMrF61MYMBp5MwavT+AC/9B/AwUAAAAAAAAAAAAAAAAAAAAAAAAAAAAAAAAAAAAAAAAAAAAAAAAAAAAAwP8v/wPLNr6+26jKbgAAAABJRU5ErkJggg==;" parent="quVHmLEPleR1YJUEZjZv-19" vertex="1">
          <mxGeometry x="33.620000000000005" y="4.25" width="106" height="106" as="geometry" />
        </mxCell>
        <mxCell id="0d5R8pZXhQQyxfGdjJ8H-51" value="" style="pointerEvents=1;verticalLabelPosition=bottom;shadow=0;dashed=0;align=center;html=1;verticalAlign=top;shape=mxgraph.electrical.miscellaneous.plug_socket_connection;rotation=-90;direction=south;" parent="quVHmLEPleR1YJUEZjZv-31" vertex="1">
          <mxGeometry x="62.38000000000011" y="3.5" width="42" height="42.5" as="geometry" />
        </mxCell>
        <mxCell id="quVHmLEPleR1YJUEZjZv-32" style="edgeStyle=orthogonalEdgeStyle;rounded=0;orthogonalLoop=1;jettySize=auto;html=1;exitX=1;exitY=0.5;exitDx=0;exitDy=0;entryX=0;entryY=0.5;entryDx=0;entryDy=0;" parent="1" source="0d5R8pZXhQQyxfGdjJ8H-34" target="0d5R8pZXhQQyxfGdjJ8H-11" edge="1">
          <mxGeometry relative="1" as="geometry" />
        </mxCell>
        <mxCell id="0d5R8pZXhQQyxfGdjJ8H-27" style="edgeStyle=orthogonalEdgeStyle;rounded=0;orthogonalLoop=1;jettySize=auto;html=1;entryX=0.25;entryY=0;entryDx=0;entryDy=0;" parent="1" source="0d5R8pZXhQQyxfGdjJ8H-26" target="0d5R8pZXhQQyxfGdjJ8H-29" edge="1">
          <mxGeometry relative="1" as="geometry">
            <mxPoint x="1190" y="365" as="targetPoint" />
          </mxGeometry>
        </mxCell>
        <mxCell id="quVHmLEPleR1YJUEZjZv-44" style="edgeStyle=orthogonalEdgeStyle;rounded=0;orthogonalLoop=1;jettySize=auto;html=1;exitX=0;exitY=1;exitDx=0;exitDy=0;entryX=1;entryY=0.5;entryDx=0;entryDy=0;" parent="1" source="0d5R8pZXhQQyxfGdjJ8H-37" target="0d5R8pZXhQQyxfGdjJ8H-69" edge="1">
          <mxGeometry relative="1" as="geometry">
            <Array as="points">
              <mxPoint x="1844" y="1310" />
            </Array>
          </mxGeometry>
        </mxCell>
        <mxCell id="ckFxBgVPUirz9f_X5Qli-1" value="&lt;b&gt;&lt;font style=&quot;font-size: 20px;&quot;&gt;SoFTEAM&lt;/font&gt;&lt;/b&gt;" style="text;html=1;align=center;verticalAlign=middle;resizable=0;points=[];autosize=1;strokeColor=none;fillColor=none;" parent="1" vertex="1">
          <mxGeometry x="902" y="15" width="112" height="36" as="geometry" />
        </mxCell>
        <mxCell id="ckFxBgVPUirz9f_X5Qli-6" value="" style="group" parent="1" vertex="1" connectable="0">
          <mxGeometry x="464" y="77" width="120" height="430" as="geometry" />
        </mxCell>
        <mxCell id="ckFxBgVPUirz9f_X5Qli-5" value="" style="rounded=1;whiteSpace=wrap;html=1;" parent="ckFxBgVPUirz9f_X5Qli-6" vertex="1">
          <mxGeometry width="120" height="430" as="geometry" />
        </mxCell>
        <mxCell id="0d5R8pZXhQQyxfGdjJ8H-2" value="" style="shape=image;verticalLabelPosition=bottom;labelBackgroundColor=default;verticalAlign=top;aspect=fixed;imageAspect=0;image=data:image/png,iVBORw0KGgoAAAANSUhEUgAAAOUAAADcCAMAAAC4YpZBAAABYlBMVEX///8pJSbMAEwAidBkYKrzcCH8txENsUsAAAD8swAdFxkArT3+6L6+5coTDA2DgYKzsrMgGxzu7e1ubW2op6cJAAAkICESCw3Ix8dST1Dd3Ny7uroNAQXz8/MAgs4cFxjyZwDS0dLLAEXKAEGVlJRKR0jJADteWqcuKixXUqQAf82dnJwArDllY2N4dLTBwcHzaxLS0eX828z95dr+8tp1c3Tk4+M8OTr88PTh4O7Hxt6xr9Lpp7mIhbzIADS8u9j70b7N5PRAnNfn8/ppZa3+4q/9yF390n792pj8vS//+OqSkMH33eXbaorTO2rggZv5vqP2nXKRw+b2k2Hyy9cdkdP3qIKr0Ov1ilL0fDl7uOL+7Mnzdivv+vP8xEzS7ts8u2ZWwniF0p36x6/susfkkqmgnsnfepaBfbjZXYHTNWeCu+P4r42eyunwwtDZ6vZdqdxvyouo3rmZ2Kz91YdJRJ8HnHHqAAAWn0lEQVR4nO1c+X/TxhK3QwOqA7blWJLPOL4SJ8YkBWKHlnJDSyiFUmgpUKBcvXjvUej7/5+0q2OP2UsWkPdpvr+UJlppv5rd+c7MjpLLHeAAB/hH4O6Lsy9v3Xp59u6u9pAzn3/x6oaPV+fPvMeJZYbds9+urfX7vV6v319bW7j5QmPM5zfWN9YjbKzf+Oy9z3I+fHNzrd9bINBb672UW7Tyyif2CYn1jSuff6D5psHuzTWKIka/f0vC8xVDEWPjxL5duC8WAI6I58K/BUM+uwJxRPZ89UHnro2bazDHAGsvwSFfbMAckTl/a39gAjr4ti8m6dP8HRhyQ0LSN+eV/UfzW8FqjVftTW6InOR+pKki6dP8lRnySkHSp3nio3AR4qZ0uYaL9iw15HMlSZ/mjY/EB8RZieMhaH5DDGkLnCuNjfMfjROHXS2SC71viTFfarH8ZGP/bM2bPS2WC2t34yFnNNbr/lqz35zTI0ka8zc9U/rG3C9B0O+aplxYOBftTF1T7h9j7uqa0jfmrXDMK11T7pudeVZDRWKEY7Q5+sbcH25WHRAkCMVEf8H6LH/7yPww9GQEo48jg/P6C9Zfsh+ZH8JdE5Y9HOYZbMt94mVfmGzLHk5NvjQg+cnGfigcvDRhGbqfKyYs17/4yAwDmLHsoTEmC/aT9f1QNbjVM2F5Do0xcLH7JC4ws+U5VOjCdcn/J1saskRjrpxAuALW7/YlSyMfu7BGjT2jk3/tC+9jpJdxiBfiMw2W+0JJDIJ1H3+QQ8+o6luY5X6ICnJ/GJDsEZW89g2tbflBI7xTt7/7advHo/uvL9C/MZGSOPXyDanpZFkhufivB5fu3bt36cGdi5ezpXjyu+3V1e1FhG3/n9+TRE02Zj+u42mnJdS2vPhmxcehAME/7t3JjujzRxHDCNur28+T3xvYMqn8XNEkSS7YH+9tYoYxVjYvXcyE48lHq4sAVh+diq4wWLJxsfK8rimTBXv50uYhAJuXMrDnDyBHxPN2eImBl+1Htz1hXN36cQXiiHj+a06Oez8JSfo0vw+v0i9vRULS1jZldIjwADRkuG7fzEXy1Pa2mKRP8z6+7N+6/qcXnXzp+56w6vNGaElE895cJGUcA5rf4Qt1JTMWks+0bYmvfyAlORfN9qKK5eLqa3SlbhkvFhJdlmGk/qNkuYY0L6VleV9J0qd5IbhyV5PlWnTyrstyoxJcfVFJ0qf5ZzqStyWOh6CJrv21p8fSsLa+/iW6Ws0xoJlKOHc1LOljG23Nb/T8Tywkmj52A3X+qDZliFRb8wc9lourKDrQKz0nGYnegr0SXPofjfWKjHnHnOSe1noNjInk5IWOMXtJC4XWmRfOny/pkfRhzvK1pil9Y54MrtcxZS9pLbihxTI4CNJxPaExzWMgXY6+MVEIpFP+STKS3Bc6pRAkI2+0TWm+M0/qLtjFcGfqiMla0sKlIyUohL2s53oQNv9jyFJ/wfrG/CEYoXHsTrRPaEgJPuz604Clsf+5r08y1EwNMekTD1CzxOmzPkcfpgGQwYKNcjC1mJClrSvqFRtcJs63QJiRPGXEcvFRMEYpJj2yF09ZicUycs+I5KZZQn3BjCWOZlWm7JE9asojTBTCXjQzpWGU99yMJY4MVGLSJ1vUVMfROIQ1kBHE8sf3yVJPTNbIXmCVlKAQ1kRGPgBLHLMrKiNUH55KSlAlxERGUrA03Je+MYNgTFGZ7VHt6/IViyshZhyNWZqEPpglEhN5ZYQ6I8mdkG/L4K0Zyoix9zFUksVQTKSVkR7d1C2VEhzCmsnIIWMlMQjWI2NeCIbJNmaPbnaWSgkKYQ1lJIAZydz3BnEsAhYTWZm9b9DrjEJYQxnxYVqX1Sv6UMYMxEQWzPbpj6FkTjaVjBg7nzQbUykmlJAoSj/BBaYy4rM0PjHRKVMyxtzLScvsPeY7KInvQSGsKUfzBZtCMRe3UQVavGL/YJ4gPhDaSCUjhzZT1Cp/MmW5uB0ME4pJj/06SFj6wYd5+kWtCGnK6+bGXA1OboXfI/TYr2aEpR8sI9pFrQjpys7GYrL4UzBMVBlhhEQiJSiENZaRlQdpSOZy5v4nqFmKvkjos1/ViqQEVUIuG5sy7amXcTCLa5aCyggjJOKvg1AjgbGMmKtIBNP8C0cGgsoIKySi0g8OYU0tmca/RjCNgHDNEl6xrJCIThFQJcRURuYhmaJmEAwCKyPUR14YYLyOKyGG2Ug695rgJNvqo2AZpJmgmPT4r0zB0g8KYc1kZOWQaU2dw6n7ZuYMxkBiwgmJoPSDDvOMZCT9YTuJ2ybmRGkmlJlwQgJLCfoSyEhGUpx0gTAxJ04zATHhhASWEhTCGsjIyqW5V2sMA3OKxIQXEqj0g2XEgGSK82cxTsl6uGhjojQTcD/AXfnSDwphtWVk5V42rYYJXuvSRDVLTkwAIQGkBB/m6cpI2sg1wd7Do1evHn24l/zk5CPNppEgzeTEBBASQEpQCKspI7Qhfw5gxvDqtcOfhjj8+OvT0c+/0zMnSjPZygggJJCUBD/Vk5HNuDDw87FnT48sLR1fWjry9NkxTY6nrwXkEnz66fW/Q5NekDcfRks2SDPZMjsgJLlchWGJKiFaMrJyKCpkPfnLZ3gkgv/PZ0/UHPeuURQjol9hnu3vdcyJ0kymzA4ISY4r/aAQVkdGVt6EGciTpwTFkOjxX1Q8vwY4Yp5f4wuea2gKSjOZyggkJKyU4BBWx5KhIX/+5fgRCMefSUlegzkintfx/txThwg4zVQLCSslKIRVy8hK1ML9lrNjbM+nEk90XUwy4BmaUx0ioMiAKrODQsKWflAlRCkjm3ciQ4o4Ip5CNyQn6dN8jHenMkRAaSYVzIJCwpR+0GGe6mxk5V4Y0R07IiPpr1oBzccKksHuPIovVYUInJj04b/VRMXr6DBPISObUSDwF7wjlTQle5LgeQ1ffAr+/CJeskGaSYoJKCS+lBArFoWw8rORlUNhIPBEYUi8aAFXe1WHpE/z8EN8vfgLjADoNJMQE1hIKClBIaxURuJA4JnSkBicC9rTIxnw/BuPOCnrakdpJiEmsJCQpwg4hJUaMtKPpxqGRMb8i33cV9osY02RRXwozdwlNiZMkjhFUMlIHAi81TTkEX5rntYneTjRFEnEh8Qk7mbv8QU8jERKUCVEfDaiCgRgPKWfpuV6CJqPVREfSjNjMREICSElKIQVykgcCKj0Q2pM/V0Z0fz0Kh4pjPi2A12IKiMCISGkRCojcWlHrR8yY/5tyjLRFFHEh8QkqowIhCQp/aDDPIGMxIGAln4wxiTV5LExSUJTBBEfEhOFkMRSgmTkDshyM/oc5pkxR9/NknG7uSkRz6/waDjiQ2ISVkb6wj86ik8R8Jd5sCHDQEBbP2gQS9bMwxI0I02BIj4sJn2pkESlHxTCQjISR3RvU3H0l2wSGRxNyTLRFMicSExwmV0kJFHpB32Zx8tIHNHJ8w8py2Rjfp2aZawpQMSXiIlQSMLSDwph+aLW5pv2fIY8QmVgBoEPTzPSFD7iQ60xf/QkQhJKCfI9nIzEPUrG+kGyfJcJy0RTuIgP1SyDPzMCFvBCrIchLCsjcSCQQj9IlomTnY9loikXGE1BaWZPJiToQBqFsIyMxF906+Yf751loik5OuJDNUtfTPoSlkHpJ/gvox9RIJBOP0CWKUIfzpyhptARX1Cz3D0X/hkqGK/W1zkZiQOBd/MZ8gi1LzUzaDnPUFOoiA/VLH8XZiQBzq+jnhBCRhL9mNeQAcu38ZMeZsDSDxFCTSEiPlSzvHtOLCSBkw1CWEJG4orAsfk5UkpinJIIeIaaQoQIKDJYEAuJ71v/S8lIcjQwj34kIGKf3PVMWPqaEpszMmZQszwrERLfyeaIs5GVKBCYTz8SPCWeNLeTjWgePsqYc9X/n927OQlIGYkDgTn1IwZV+slkY2KekaaEAXz8J1WkYAOBDNwOBl0syGjJHiY0JTrV1SCJZSTuEZhfPxJQz5kjXud5hpqCIz78BYYcl8hAIH3+wWOJOfzKjiSRp1zwA/jt+0qSgYzEfyAjE/2IWTJ15ywCg4RmpClBjW/1VE6BN0kgkJF+RCS5c8w0pR8JzyhPeb4d/XUcIS5vxoFAVvoRgTtCSFsVEdGM8hQ/4lP8ke0/M9ePEMff8g/LdM0eJjTl9ms5y+z1A2PpF+hp82cmDM2o9iXfmJGl32XLkTs+eF80E01RI0v9CCFqLchSNTHNx3uCRzHIVD8CLAlJBiXLrFdtpClyZKofiKSsSSS3p24uMOV5TfI4jKz1w/eu7xSPfHg9Y3vGmiJCxvrhc3yq0aT2kGnEm5/nV5KnZVH2ILC0dPwXzY5DsqkyExw+LXrUu+PHlzLEkb/eGvWP7p1++PBoZhD5oCfHMsSTJ2Ydsgc4wAEOcIADHOAA/yRUutXxoLQz8bFcGlebjQp8XbsCACpmAVeAYxNoz3W6Fcx1OZjrjj/XLdFcaTSqk7znFIudgo3Q6RT9/3Xrgy1++MS/joM15e9pURdUg5+VLGBsAns0nAyqXflcu4O63Wr5U+3guRaKxZbTyU/G8nHdku0UbTfPwy20WvUqQ3TZhq6cASzJC4qYZQEYS97GtTtFpzgpiwqdWxPP6YBTtf1xy00Rx9rQ6kgfXLQmDSXLfGc5C5YhbM/a4RdHLld1W+DD43GtVglau426Bb0ZZrA1IcbCLPNONTuWPgpWiZ1r0/XUc+3w4/x9oh4XwLbGKpZ5q0Hfez6W/ogZtWwrOvYI0LFr1Dyms6L2M52JiqU7ypZlvjAk7lazpGuVmghhEn8aRb2Xg9GpK1jmO5McCQ2WbocAf9tWsgmqFvdbCaxBMosWQNL1vXLLcTzAjxV3FCzzztiMpTscDxJMOJ6J4wZJ+l5VNFerHC1XwJIFr16tTafTbnNQ9zjPazUVLPNW14ilTRu/PWRn1AmdXpkn6XqF5XI3mGu5NHO4KVnhyBFH0i2SbnhaYj1auPEkLF2XcBjGLHMVj7lfawrcCQ91q8SjupMW8/tQ2EqcqewR6yTzDE2nqWCZt+vEcGOWOdaYoS1nnEGK7Miyw1xhBS+hy70ed8TpaZd5Q/ayimW+Rex7Y5Zt5s2H+3LAKUGHJZnLjZl14JXB19MCgo0dq0XCGilZ5q1YrMxZTpg7F9Erq7CrEQoncznXoedaCtSHHVkcACMrNQYAS3bzFqIloeFj681yjGppxL4+D92K31sWFJc3mKk2+Lfmv1dgIAya5azO3MqOtFxHL6mEhF1eOI1pc6uO284CtDlTdvjoT4/lqOIy0/BK2iylcLA+b7F+Jd/a0pvoFuuy8y1FUidkmedXf6ir87G0o/hlh1t2Rc2JDrilXtTP01mWuQH7zpzpvCxdpx7JGhcquHXh1KQTDYZqk+RZ5obM7bAPnIOlO4wXZZubamFHc6IT7v1AvlmbJefrUcg7ly2Ls6qIpbYL4dY6mzWZsQS2ZnnefenHqUi32txvtFny+1JfSCCWuRIbnlhTLZYuCZYnzvq5+MXmai8CVLmYyZvD+0Bz8ReHBsvZkMDM4rxYsPA5aXeHksmRaKTWIBHLCrtmO8tT6iEQyw4Tb5XZTDFY+GNu3TmKTsYYXGhYSBsVhCxzWyzNIr35QZbsQ6fMGnPzUF7hCeuRDPjYsKP7ggQs+a1JX6bFknMYQezPb0zNCA94QcUxcFltskxDwpKX7xQsmx4/asw5EbZaiDBmphrwYWNsOPqZFG0SnZmM5ZTbBiqW/DZh11iwc9uc+oDRj1Og5ooSXb7IYPOuiw2UcXYmYplryupsWrbc4sKLwCJsgpwkBJL3g7MzbhslpcgIXfYSbG4hS+CeJizbjRK3GlDGD6T8DkuTLfJFcsMPtUeUnIzZ6lYLb10xS+CeUpZ+3kbABs5r8A7khS/v1cm9Wdnhyj7hr6d8GdN1htUGPmfsDkbsOimErk3CssGtLQVLSeiDfh2G10Cl0nYmTXwmWtkqddj3k1TXu0DV2S1arh+QjDr88VknOraQsISmI2WpQHzCNAbua3uOHzzNRi3+HMwh0paGDdap4PdaHEaCKmOZ2xGdEqZhSTjEKnwUBC8B+tirMhSvMOZuxEApS+HWTMHSzhPiVuNWpXCYU2bmNNY7SfJGxGGZnCXgKRDMWXpDSsHbE62TPdeq8yXXyo78JDoY59FxkZxlrgrTNGTpFltcMNYdKm1iWzM47ZiWLMkxtu+Ohswhs4JlbgIyMWDp2v5Dx1BcXZtYktNI27MmktSquWwB7RNBP4JVH3P2n5B9Hh5QUMu3oCYSdY+I53ktx7Ks0Q7bsJGgUq1brQJftuoULUvccxGhO96Z+Q9wPAT0sOEO3FtSK1PgL5iWITSAsQyaW7WuunOnvTWYuP5UW8lcvXqpCkXwICqN7la56aPWnWonYh8JlUYtmGnwYqBukgMc4AAHOACNUgxYTdrdZnnso9qs6VePYYxLRmjS00MARahBXwPJrFUI+5v46lW7NpiMfDUPw4eWZddLzTnEru4VDIAPGbesDvkzqBqYqxeJSzoWMMMkcuQ6+paLToeJzYKmVlk8Jwd/Fi9DWB2nB3WA29KlUS438lFKskCa5XQiCtJtZ1jjb/TeWNLnB1Bpt05aAqg01sjGR4plmWzM8rNmm0ycXQtq+nhPLJmWnAJ3V9qUzIpsd8dDxxX8nih/up41GtYn9ZnlJZO02LZcPZYF15WctzG/9KJXSTXE8MakTBk33dTK1XFpMrMdJp0iWSYT8OqRv2lvER1pBqd1CXaGdQr0uYBbZ34bvUn6nJZNxyhTunFK6udwHdarMCyTwjf96qrxLvaAPW6MLpX6e0LvTa101piUKa3YM2p0TZdjNkznQ/z2C+l2ZjqWU8qYLep3lKGJEysNls1oabJns/G5IXiM9b5Y0g6IfjRlylayj5YF9RGCZTvegA6VRrbjpwFfsrxHlrQDIo1ZI2/hEfyXiSM1kY8dROvAzROVi1rc3dvSP17OhCV1Gk0akzSlsOWGPLmmlCb+TMK1ZoNm10ezNHPin+k2/8ihz5J2QF78Y2pXgu2QAZZFLHPdmRUeZ7gdz3GIRvVOy87CweaMWE5hY5Km7AhfvZilf+MqeM49G+g3DypgwJJ2QFE0S5myIBwvZlkZ1wtwEbYzLGXE04Ql1fEfGZM0ZUu8wEQsp0Sh2e0UW0E1tZD8wKprVygzY7nF2400pS3phhSw3Erq/q4zK5VrjUa3PJglh5K29SFjHwzSAWFjkqZ0JO8dZkm8owKZZXVnRLyu2/4jgRlLqk/EbtOmLMqkDWaZbAF2HST+yDXoehXBjCXlgAJjEqZ0+YMjAiBLokmFXQfEvJyUqTR8Nx2WlANyKVM60voFyJJoaLLYAcmdi6lSTAqmLJvE9cUx0W6s6CsDWRK9n6wtidPgDHIvU5aUAyKjU0ee7YIsibyU3ZdE85kwntKHMcspfBbtKRIk2PsQXQqFIRmtD5MTdO1+WQmMWQKfZeU1GuOVSuLr5Win2qzVmtUkWg9+DPYeGsKcZY79KEprVQmiAqoDxrWLXqvlFcleJNvLIshLwbLJr9mCstdcFOHV8rIP222oIyQFUrAE2lKhWjoNcbReHVlwtG4Xrfr8UonQtTwC6tkGmFJjgmFqRZtYTgx2p3UHsyBGt8O6KfoDFS3LWRY3WZii0iShqUy1JgP1kGkjQRd4l43muDSpD2ej0WxY3xlUa8qV+j/XfP9VWQ94NAAAAABJRU5ErkJggg==;" parent="ckFxBgVPUirz9f_X5Qli-6" vertex="1">
          <mxGeometry x="26.149999999999977" y="143" width="70.79" height="68" as="geometry" />
        </mxCell>
        <mxCell id="0d5R8pZXhQQyxfGdjJ8H-3" value="" style="shape=image;verticalLabelPosition=bottom;labelBackgroundColor=default;verticalAlign=top;aspect=fixed;imageAspect=0;image=data:image/jpeg,/9j/4AAQSkZJRgABAQAAAQABAAD/2wCEAAkGBxANDRAPDRAPDg4NFRUWDg8VDQ8QEA0RGBIWFxcRFRUYHSggGBolGxcVITEhJSorLi4uGB8zOjMsNygtLisBCgoKDg0OGxAQGjAmHyEtNy0wMC04Mi0tKy8tLS03LTAtMi01Ly8tLSstLS0vLS8tLSsyLzItMS0tLS0tLS0tLf/AABEIAOEA4QMBEQACEQEDEQH/xAAcAAEAAgIDAQAAAAAAAAAAAAAABgcBBQIECAP/xABWEAABBAEBBAQGCgsNBwUAAAABAAIDEQQSBQYhMQcTQVEUF2FxgdMiIzI0UlRyc5GxFTM1QlNVlJWhssEIJCVDYnSDs7TR0uLwFoKSk8LDxERkhKOk/8QAGwEBAAMBAQEBAAAAAAAAAAAAAAQFBgMCAQf/xAA4EQEAAgECAgUKBQQCAwAAAAAAAQIDBBEFIRIxQVFxEzM0YYGRocHR4RQVMrHwIkJjcgZSIyRT/9oADAMBAAIRAxEAPwCs7QLQLQEC0C0BAQEC0C0C0C0C0C0C0C0C0C0C0C0C0C0C0C0BAQEBBxQLQLQEGUBBhAQZQEBBhAQEGUBAQEBAQEBAQEBAQEBAtBxtAtAtAtAtAtAtAtAtAtAtAtAQLQEC0C0BAtAtAtAtAtAtAtAtAQEBBhAQEBAQEBAQEBAQEBAQEBAQEBAQLQEC0BAtAQLQLQLQcbQLQLQLQLQLQLQLQLQLQLQLQLQLQLQLQLQZtAtAtBi0GbQLQLQLQYtBm0C0BBxQEBAQEBAQEBAQEBAQEBAQEBAQEBAQEBAQEBAQEHFAQEGUGLQEGbQYtBm0C0C0C0C0C0C0C0C0C0C0C0C0C0C0C0C0C0C0C0C0HFAQEBAQEBAQEBAQEBAQEBAQEBAQEBAQEC0C0C0C0GbQcbQEBB3diYYyc3Fx3lzW5M8MTnNrU1skrWEtvhYDjVoLo8R+D8czvpxvVoOltToOj6snCzZRKOTZ443Md5C6MNLfPTvMUFTbc2PkbPyH42XGYpmcau2vaeUjHffNNHj5CDRBADq4kQkljYSQJHsaSOYDnAWPpQXh4j8H43nfTjerQRLd/o6xsvbO0tnPnyWxbPDDHI0w9ZJqAPs7YR29gCCW+I/B+N53043q0DxH4PxvO+nG9WgeI/B+N53043q0DxH4PxvO+nG9WgeI/B+N53043q0DxH4PxvO+nG9WgeI/B+N53043q0DxH4PxvO+nG9WgeI/B+OZ3043q0DxH4PxvO+nG9Wgq7pA3VdsbPOOHPkgkaH40rgNUjOTmuIAGprgbrsLT2oI2gwTXPsQXJu30Mw5GFBNm5GVDkTMD3xM6kNiDuLWEOYTqDavjztBDekvdbE2NkQ42LPkTzPYXziQxERMJqOtDRxJD/QB3oIcgICBaDCAgINtuh91tnfzzF/tMaD1mgje72+mLtDMy8KPXHk4MkjHseGjrWxyGN0kZBNi64GiLHBBqel/dcbR2Y+WNl5WCDLCQPZPYB7ZF3m2iwPhNag88bLN5OPXbLF/WNQevcidkTHPkc1jGAlz3ENa0DmSTyXyZiI3l6pS17RWsbzKrNyNoQ/7TbVnMjRFn9WMR5OnrnNDQWgHiDY4A1fZa51z0tO0Sn5uE6vFTp2pyjr22nb3Jzv1tmXZ2y8nLxxG6WANLA9rnMNyNabDSDyJ7V1Vym/HXtX8Fs78nyfXIHjr2r+C2d+T5PrkFo9Gu+32bxpXSRthyMZzWzMa4uY4OBLZG3xANOFG60niUH16Td4snZOzvCsRsLntlja8Sse9uh1jgGuab1ae3laCqfHXtX8Fs78nyfXILC6J99crbQyzmNx2eDdV1fVRyMvX1mrVqe6/ciqrtQbXpL3kn2Ts7wrFbE6XrY2VI17mU674Nc03w70FUeOvav4LZ35Pk+uQT7os6Q5NsPngzGwx5UQD4hE17GSw8A7g5zjqa6r48njuKDv8ASxuv9lNmOMTdWVh3Lj0PZPoeziHym8h8JrUHmoG+I7UEw6LN2/sptSMPbeNiVNkdzgD7CM/Kd2doa5B6Q2nnx4mPLkTu0w47HPkdV01os0O0+TtQeTtubWk2hlz5c/CTJeXlt2IxQDIwe0NaGtv+Sg6KAgICDjaBaBaDbboH+FtnfzzF/tMaD1qg8v5m237N3kysyOyYM7JLmj+MjM8gfH6Wkjz0exB6awspk8Uc0Tg+KZrXxvHJzHAFpHoIQea99t3PsVt5sLG6ceaaKXF4cBG+UXGPku1NruDe9Bc3SuJDs1vV31YmYZ6+BTqvya9HppRtVv0OXevf+PTT8VPS6+jO3jy+W6oqJ4CyTyA5k9gHltV7a+K2ukvWN2cnrvtohh635fWR6v02riu+0bvzHN0fKW6HVvO3h2PNdr65loLk/c689p//ABf/ACEEo6cj/AMvzsH9a1B5ztBc/wC515bS8+P9UyCQdO/3EPz8P1lB54tBsN39sybOzIcuDjJju1aboSNqnxk9zmki+y77EHrHZe0I8vHiyYHa4chjXxu5W1wsWOw947EHnPpc3a+xe1HuYNOLnapoO5jr9ti9DiHeZ7R2ILg6JN2fsbsthlbpycypZ7HsmAj2uI92ltWPhOcginT7vLpZFsuJ3GWpsuvwbXe1RnzvBd3jq29jkFKoCAgWgzaDjaAgWg225/3W2d/PMX+0xoPWyDyVvl91to/zzK/tD0FudA+9IlxnbMmf7bjW/Fs8ZICbcwd5Y4nh8Fza5FBYG8e7GJtQReFx6nYzw+CRri2SJ1gmiOw0LB4Gh3BBtpY2vaWvAc1wIc0gFrgeYIPMJ1vtbTWd4naYVfuRix/7T7Xh6uPqsMRHGZobUBcBZZ3HiVzripE7xCZl4jqstOhfJMx+/j3+1Od8tiO2ns7Iw2SCJ2QGgSFpcG1I13IEX7ldEJVHiKyPxhD+SP8AWIM+IrI/GEP5I/1iCx9wNy4th4z4mSOnlncHTTFgZqIFNa1oJ0tHHgSTbjx7ghH7oHbrBDjbPY65Hv6+cA+4jaHNY13ynOJ/o0FJoLn/AHOnLaXnx/qmQSHp4+4Z+fh+soPO6AgufoD3n4SbLmd7nVLh2ewm5Yh6TrHyn9yCzd5d28bajIWZbNYx5mTM5cXMPFju9rgS0jtB8yDvbU2hHiY8uTO7TFjsc+Q8yGtFmh2nuHag8l7d2tJn5c+XP9syXl5F2GDk2MHtDWhrR8lB0UBAQEBBxQEBB29j53guXj5OnrPBZopdGrT1nVyNfp1UavTV0atBbPj5d+K2/nE+oQVPtjO8Ly8jJ09X4VNLLo1aur6yRz9OqhdXV0EHwxcl8MjJYXuiljIdHI1xa5jh2goLP2P04ZkMYZl4sOY5orrWynGc/wArgGObfmDR5Ag2Hj5d+K2/nE+oQRnYnSYcTa2ftLwMSHaIYOp8LLep0AD3fVnVddwQSbx8u/FbfzifUIHj5d+K2/nE+oQPHy78Vt/OJ9Qg6G1unHLlYW4mJBiuP8Y6Z2S5vlaNLBfnseQoKxzcyTIlfNPI6WaU6pJHG3PPefRQrkAAAg+NoJl0d7/HYQyQMUZXhXV/+p6nq9Gv+Q671+Tkg2G/fSids4XghwhjDrGP6zwsze5v2Onq28752gr20GLQdvZO0ZMPJhyYDplx3h7D2Ejm097SLBHaCUFs+Pl34rb+cT6hBHN/OlKXbOGMRuMMSMva6YjJMxmDeLY66ttDVpd52hBXyDKDCBaAgWgwgICD6Y8Rke1jatxoWeC6Ysc5bxSvXLxkyRjpN56obIbvznti/wCN/wDhVj+T5++vvn6IH5rg7re6Pq5jdrIP30P/ABv/AMC+flGfvr8fo8zxjTx2W90fVl27GT2dU7yCR1/paF8twnPEctp9v2fI4xpp6949n0mWsysSSB2mZjoyeVjgfMRwPoUDLhvina8bLDDnx5o6WO0T/Pg+C5uogICAgICAgINzu9u/JnOJB6uFhp8hF8eelo7T9VqXpdJbPPdEdv0TtFob6meXKsdc/RM8bc3DYKcx8p+E6V4J9DSB+hXFOG4Kxzjfxn6L6nCNNWOcTPjM/LZ9Jd0sFw+06fKJZR/1Uvl9Bp/+vxl7nhWln+34z9UP3t2JFguiETpHdbqJa4tOkN08iAO/9CqNXgrhmOjPWo+JaLHppr0Jnnv1+rb6o+oisY1DvR83hkOCG8CPogICAg4oCBaDubJ98xfK/YVL0HpNPH5SjazzF/BM41rmVs+E22seF5ZI8hzeY6t5rgDzA8qhZdfgx3mlp5x6pdqcPz5axekcp9cO3s7a8E7tMclv+CWuaT5rHH0L7h1mHLPRpbn7nDUaHPhr0r15d/X+zYT4jJ4zHK0OY7mO7yg9h8q65cVclZraN4Q8ea+G8XpO0wrja2A7FnfC7jp4td8Nh5H/AF2grKajDOHJNJ/kNvpNTXUYYyR29fqntdS1wSS0GNQ70GbQCUGA4HtCDNoMEoLg2DiCDEhjH3rAXeVxFuP0krVabHGPFWvqbbR4oxYK1ju+Pa129e8RwAxsbA+WWyNV6WNFcSBxPE8vOuGt1nkIiKxvMo3EdfOmiIrG8z7oRlm/eUD7JmO4do0SNP06iq38zy9sR8fqqY41niecV+P1aveHbTs+Rjyzq9DNOnXqF6iS66HPhw8ii6jPOa0TMbbImt1k6m8WmNto272rtcENY+68LTgQEtaSQ7iWgn3bl3r+mGz4XSs6SkzH83lrN+42tgi0tA9s7AB94Vysh8drWMVNo7flKF2vLMFoFoFoFoONoFoCDubI98xfK/YVL0HpNPH5I2s8xfwTSNa5lJQ7b3vubzt/UasnxH0m/wDOyGo4f6NT2/vLpwyOY9rme7aQWfKB4KJW01tFq9cJV61tWa26p61sRraS/PJQ3pAaBkQkc3RkHzB/D6ys/wAXiPKVn1fNpv8Aj8z5G8dnS+X2SnYOx8V+HjufjY7nOijLnGCMlxLASSSOJU/T6fFOGszWOqOyO5WarWaiupyVjJbaLT2z3s5O6mNLkRydVGyKNpuJjAwSvvgXaeYAvh233cD5vocVskW2jaOyO1LwcQzRjmvSmZmeuee0eo3qxIo9nT6Io26WDTUbRp9kAKocE1uOldPbaI6kvR3tbLG8oHu3sJ+fKWg6Io662Srq+TWjtcf0c+4Gm0ultnt6o611a3RWTs7d3ExwOrgYXD797RI8/wC87l6KCvcekw445VdsXN3Z9mwSDTJBC8dxiYf2L3bDS0bTWFljpW3KYQ7enctrWOnwQRosvgsuDhzJjvjf8nt7K5Gs1XD4iOni930ec+g/p6eL3fRw6PtnwT48zpoYpSJKaXxseQNDTQJHJOG4qXpM2rE8+3wSuEYMeTHab1iefbG/Ym4FChwA5DuV1HJoIjZ1srZ8E5BmhilLeAL42vIHcLC53w4787VifFyyYMWTnesT4xuguVhRDbzIRFGISW3F1berPtN+55c+KpMmOkazobRt3dnUz98WP8xinRjo93Z1dyYnYmJ8Vx/+RH/cpl8GL/rHuX0aPT//ADr7oQ7ZWFE7bGRE6KN0TRJpjMbSxtFlU2qHMqqitfLTG3JSaTDjtxC9JrG0b8tuXYmkcLY2hkbWsY3k1rQ1o7eAC+2jZp6UrSvRrG0ep18vFjlAErGSAcQHMDgD38VxmHzJhpkja9Ynx5q+3rgZFmObGxrG6W+xa0NF0eNBeJY/i2OmPUzWkREbR1cmoXxWiAgIOKAgIO5sf3zF8r9hUvQek08fkjazzF/BNY1r2Ul0Mvd2OeV0jpJGl9WBpoUAO0eRVefhmPLkm82nmm4eKZMOOMcVidvF2Nm7tQQyCQl8jmm2hxbpB7DQAsph4ZhxW6XOZjvctTxbNlpNNoiJ7kha4NBLiABxJJoAd5Kn2mIjeVPMTM7QrjeTaQy8p0jftbQGR+VoJOr0kk+alldbnjNlm0dUcobXhulnTYIpbrnnPjP0WZu57xxfmYv6sLQabzNPCP2ZPV+lZP8Aaf3dTezeA7PjZoYHyzatGonQ0NAtxrifdN4cOfNcNbqvIRG0bzKy4dpPLzO87RCEbR3uysmF8Moh0SUHaY3BwpwPA6vIqjLr8uSk0tttK/xaPHjtFq78k73OwhBs+ChTpWiR5riXPFi/M3SPQrjRY4phr6+fveZt0skulv5tqTEhjjgdokyC63j3TWNAvT3ElzePnXHiGotirEV65TKTtHJFt2N5MiLKibLNLNFM9rJGvkdJWo0HAuNiiQeHZartLq8lckRaZmJ5c0nT5rVvG88pWqtA0WJUO8zH4WbkRQvkiYXa2tbI5gp7Q7kD2EkehZvUxbDltWszEdfvUGri2DNatJmI6+XrWnjH2tnyW/UFpafphsMf6Y8EG6RMqSPIhEckjAYzYa9zQTq8hVPxS9q3rtMxyUHGcl65K9GZjl2NJuvI5+0sdz3Oe4uNuc4uJ9g7tKg6WZnPWZn+bIGgtNtVSZnfn8lquVzdsoVNvBK5m0Mksc5h6x3Fri01w4WFRZvOW8WL1lrV1V5rO3PsTrdeQuwIHOJc4h1kkkn2bu0r3H6YarhdptpaTM7z95avfuZzIIixzmEycS1xaSNB4cFxuiccvamKs1mY59nLsQaSRzjbnOce8uLj9JXllrWtad7TvPrcUeRAQLQcUBAQdzY/vmL5X7Cpeg9Jp4/JG1nmL+CbRrXsrZq83eTqJnxdTq0V7LrdN20HlpPeqjU8U8jlnH0N9vX9lhg4V5bHGTp7b+r1+L5HfF33uOL8sxP6A1R54zPZT4/Z1jgUduT4fdqNp7cnyhpkcGx/g2jS0+ftPpKr9RrcuflaeXdHUsdLw/Bp53pHPvnr+zXKImrh3c944vzMX6gWr03maeEfswer9Kyf7T+6LdJ/PE/pv+0qzi39nt+S/wCCdV/Z80GKp16unYrw7Dx3Dk6GMj/lhavBO+Ks+qECv658UN6T2nrMU9hbKPTcf96q+K9dfb8k6vUiGzml2RCBzdJGB5y8KrxRveseuHukb2jxXkVq2pxKo6Q3g7RkA+9YwHz6b+ohZ7iM/wDnnwUnFJ/9ifCFlYv2qP5LfqC0VP0w1mP9EeCBdJXviD5s/rql4t5yvgz3HPO08Pm026X3RxvlH9Ryh6Tz1f52IPDvSqePylbDirnI2kKi3k9/5PzjlRZvOW8WJ1/pOTxTvdQ/wfB5nfruXqP0w1XCvRKfztlq9/8A7RD85/0OXKyHx7zNPH5Sg68ssICAgIOKAgIO5sc/vmL5X7Cpeg9Jp4o2s8xbwTaMrXSy0obt8/vubzt/UasnxH0m/wDOyGm4f6NT2/vLXqEmFoFoLh3cP7xxfmY/6sLWabzNPCP2YPV+lZP9p/dF+k88cT+m/wC0qzi39nt+S/4J1X9nzQa1TL1ZfR9tds2L4O4+2410O10RPsXDzXp9A71f8NzxfH0J64/ZFvTa+/e3O8GxY9oQ9U8ljmnVHIBZY6q5doo8lJ1Onrnp0ZTMdelDT7v7kNxZ2zyzdc6PjG0R6Gh3wjZN12cuKiafh8Y79K077J+n08RbpSlOXkshjfLK4NjjBLnHsAU+9opWbW6oXNb1pWbW6oUptfOOVkTTu4GVxIHwW8mt9DQB6Fl82Scl5v3sznyzlva/euPGPtUfyW/UFrKfphucf6Y8EC6ST++IPmz+sqTi3nK+DPcc87Tw+bTbpn+EMf5R/Ucoej8/X+diBw30qnj8pWs4q5yNtEKk3k9/ZPzhVDm85bxYfX+k5PFN90JQ7Z8Nc2a2nyEPd+wg+leqz/S1HCLROkpt2bx8Zc94NlDNiDNfVljtTXadQ5EURY714mN3XX6KNVjim+207oHtvZvgcojL+stodq06eZcKqz3Lwyeu0f4XJFOlvy37u/6OgiGICDFoMWgWgWg+2JP1UjZK1aDdXV8O9dtPl8lki+2+znmx+UpNN+tum7z1/E//AHf5Vb/nX+P4/ZVzwjf+/wCH3abPyuulfJWnXXsb1VTQOdDuVTqc3lss5Ntt1lp8XkscU332fC1wdi0C0Ev2dvz1EEUXg2rqmNZq8I06tLQLrQa5K2x8U6FIp0OqNuvu9ihy8D8pltk8p+qZnq7/AGtZvPvF9keq9q6nqdf8b1mrVo/kiq0/pUXV6v8AEbf07be3rT9DovwsW/q3327Nurf1z3tGoae+uNkvhkbJE4skYba4GiP7x5O1eqXtS0WrO0wTzTLZ3SG5oAyYA8jm+N2kn/cPD9PoVrj4rO216+56pbou5N0jRAe140rndgc9jG/SL+pe7cUr2VlMrq4r1Qim3t5MjPNSkMiabbC2w0Hvcebj5/QAq7UarJm6+rucc2pvl5T1dzTlRkdNYt/y1rW+C3pAF+E86FfAVxXi20bdD4/Zf1450YiPJ/H7NDvJtzw+Rj+r6rq2ltdZruzd8goWr1X4i0Tttt7Vdrtb+KtFujttHfv9HT2Tm+DZEc2nX1RvTq06uBHOjXNcMOTyd4vt1OGmzeRy1ybb7JUd/wD/ANr/APp/yKbbiG/9vx+y7/P/APH8fsie0cvr55JtOjrXF2m9Wm+y6FqBe3StNu9R6jL5XLbJttvO7t7E25JhOOgB8b/dxkkAn4QPYf8AXcvkTskaLX5NLM7c4nrj+dUpCN9YiOMMoPdqYR9KbrqOPYtudJ+CN7d2n4ZMJAzqwGhoGrUSAXG+Xl5L4pNfq/xWXp7bctu/v+rXIhCAgIMICAgICAgICAgICAgICAgICAgIFoFoFoFoCBaBaAgIFoOKAgICAgICAgICAgICAgICAgICAgICAgICAgICAgwgICAgICAgICAgICAgICAgICAgICAgICBaBaBaBaBaDjaBaBaBaBaBaBaBaDNoFoFoFoFoFoFoFoFoFoFoFoFoFoFoFoFoFoFoFoFoOKAgICAgICAgICAgICAgICAgICAgICAgICAgICAgwgICAgICAgICAgICAgICAgICAgICAgICAgICAgIOKAgICAgICAgICAgICAgICDKDCAgIMoCAgICAgIMIM2g42gWgWgWgWgWgWgWgWgWgWgWgWgWgWgWgWgWgWgWgWgICBaAgICBaBaDCAgICAgICAgICAgICAgICAgICAgICAgICAgICAg//2Q==;" parent="ckFxBgVPUirz9f_X5Qli-6" vertex="1">
          <mxGeometry x="32.14999999999998" y="234" width="66" height="66" as="geometry" />
        </mxCell>
        <mxCell id="0d5R8pZXhQQyxfGdjJ8H-4" value="" style="shape=image;verticalLabelPosition=bottom;labelBackgroundColor=default;verticalAlign=top;aspect=fixed;imageAspect=0;image=data:image/jpeg,/9j/4AAQSkZJRgABAQAAAQABAAD/2wCEAAkGBxISEhUQDxISFRIVEBAVFhUVEhAVEBgWFRUWFhgVFRUYHSggGBolHRUVITEhJSkrLi4uFx8zODMtNygtLisBCgoKDg0OGBAQGC0dHR0tLS0rKy0tLS0tLS0tLS0tLS0tLS0tLSstLS0tLS0tLS0tKy0rLS0tLTctLTc3LS0tN//AABEIAOEA4AMBIgACEQEDEQH/xAAbAAACAgMBAAAAAAAAAAAAAAAABwEGAwQFAv/EAEUQAAEDAgMDCQUEBgkFAAAAAAEAAgMEEQUGIRIxQQcTIjNRYXFzsTJSgZGhFDRy0RcjQlOTwRUWJDVigpKy8CV0o+Hx/8QAGgEAAwEBAQEAAAAAAAAAAAAAAAECBQQDBv/EACoRAAICAgAEBQQDAQAAAAAAAAABAhEDBBITITEFM0FRcSIyYYEUQpFS/9oADAMBAAIRAxEAPwBqIQhZhpEIXDxTNVNA/mpX2cAD7LjofBarc80f7w/w5Ei1im1aRZkKtf14ov3h/huR/Xii/eH+G5FD5M/+WWVCrX9eKL94f4bkf14ov3h/huRQcmfsyyouFW254ov3n/jct6mzHSyezKz46eqAeKa7xZ10LFHM12rXNPgWlZUEUCEIQIEIQgAQUIKAICCVXMfzbDTdEdOTsGo+JVMrs9VLz+r2WDhoD9CnR7w1sk+tdBrICTwzhW8Zge7YjH1C62H8oMjSBOwOHEjf8EUXLTyJDMQVw8JzPTz+y8A8Wu3rbxTGYoWF73DuF23PgijweOd1R0LoBSnqs71Rc4scAy5sAG7u8pl4JUGSFj3W2nMBKKLyYJY0mzeQhCR4ghCEALTPOBzvqDNGwlmwzcqU5pBsQQQn8WXGoSp5Q6FsdQC0W2wSfEKkzT09i6g0VdCEJmmSB2b12aXKtVI0OaywPvLnYa0GVgPF7fUJ5xABotbcEmzh2s7x0ku4mqzLNVHq6In8Oo+i5BbwIIIT+cAVRM/ZdbsmeJtnA3cBxHaizywbvFKpIotLiEsZvFI5pHerZgmfHts2pALdOkND4lUpSE6O2eCE11Q88OxBkzQ+Mggi620lMAxuSleHMN236TeFu5ODCa9s8bZWG4I+XaFLRkbGB4n+DcQhBSOYiypWeM081eCE/rDvPujtVizFiP2eB0nHZsB38El6iZ0jnPebuLifzKaR3aeDjfE+yPdNTvmkDGdJ7j68SmDg2Qo2gOnJe42OzwC0+TPD2u25iBdp2QmGm2Vs7LT4IdCuTZKpSCAyx7RvCp2YslvgBfDd7ALkb3DwTUC8vjuLFKznx7M4u2xBN03X9Dde3yk73OP4iforVnrL/Mv56Mfq3H5FVJUbGKUckeICnZlr7tF5bUkynZlr7tF5bUmcm/2R1EIQpMoEIQgASz5T+ui8t6ZiWfKf10XlvTR1afmopaEIVG4bOGddH5jfVPSH2QkXhnXR+Y31Tzh9kKWZXiH3IyLVxCEPjcw7i0hbSxzbikcEe4hpWbLnN7HG3wJC8Lfx5mzUSDsefqtBWfRY3cUwV35NcUIkdTu3OBc3xCpC6WWqgx1ULhvMrW/B7g3+aDy2YKWNodqkry1elBgMXXKbXG8cI3e0qIVZOUF96w90bR9VW1SN7Vjw40vcYfJfUgMki47QKvgSUy3in2edr79G9nd4O4pzU0we0OaQQQCkzN3MThO/czIJQhI4zQxmgE8L43DeCEk6unMb3Mdva4g/Dcn2lZyiYfsTiUDovGv4lSO/Ry1LhfYqRTsy192i8tqSZTsy192i8tqGe2/2R1EIQpMoEIQgASz5T+ui8t6ZiWfKf10XlvTR1afmopaEIVG4bOGddH5jfVPOH2QkZhnXR+Y31Tzh9kKWZPiH3IyKEKHFBwISuZPvMv41y10cwuvUy/jK5ypH0OL7V8AtzCB/aIf+4h/3tWmu7kqlMlXHfc3pHxaLhBOV1B2OFv8Az5heioYFKg+ffcUOfRasd+BqrquPKXTWnZJ7zLfJU5Ujf1neNEq9ZAzFb+zTH8B/kqIpa4g3BsRqCmPNiWSND9BB1ClU3JeZxKBDMbSAaX4q4gqDCyY5QlTJVU5Q6PnKYvG9hDh4K1LVxWl52J7Bvcxw+YTQ8cuGaYih/JO3LX3aLy2pcnItXfczj+0Uy8EpnRwsY/QhgvY6Js69zLGcVTN9CEKTgBCEIAEs+U/rovLemYlnyn9dF5b00dWn5qKWhCFRuGzhnXR+Y31Tzh9kJG4Z10fmN9U8oPZClmT4h3R6IWLEJQxjnHcGk/IXWe6pnKBjQZGYGHpu327O9I48UXOaQtqmTaeXcS4n5k/yWNCFZ9AvpiSmbyd4NzUZmeOnJ277LhZPym6RzZpxZgIIadCSDcXHYmZEzZFh3BJszd3YUvpie0IQVJmlXz9hhlpy5ou5nSHhxSn/AD1+CfsrA5pB3WISazThJp5yP2XEkdmqaNPRzf1Zx0FCFRpnqKQtcHNJBGoPemhlDNTZmiKU2lA47j8UrSvcUpa4OaSCDvQc+fAsiH4O5CpmUM1ia0UxtINx4FXMFQYmTG8cqZNkIQggEIQgAQhCABLPlP66Ly3pmJZ8p/XReW9NHVp+ailoQhUbhnoJA2Rjnbg8H4ApntzvSNHtk/5SlXFGXODRvJAHxXYlylVgbXNXHY0k+iTRybGLHJridFjxXlAuC2nZr7x9VSKiofK8veS4k+JJUVlI+PSVjm/iBC3cLxl8HstY7xbcooePFCC+hWzJhmW6mc9CMgdrgQPHVXrL+So4bPms9+nDogrm4Zn9ugmi2e9u5W/C8cgqB+rkBPu3G18kOzj2MmZ91SOi1ltB9N2i9KLqSpM9ghChMCVxMyYG2qiLT7QuWniF2kJFRk4u0Ieuo3wyGOQEOFxqDqO1YU2s25bbUsLmgCVu49vclRU0zo3ljwQ5tweCpM29fYWSNepjQVKhM6T1HI5pBabEG4KZ+Tc0icCKXSQD5/mlcvdPM5jg9hLXN3EIOfYwLIh+AqVXco482pjsT+sbo4fzCsKhmJODhKmShCEEAhCEACWfKf10XlvTMSz5T+ui8t6aOrT81FLQhCo3Dawzro/Mb6p5Q+yEjcM66P8AG31Tyh9kJMyvEO6MFXh8coIkY0+IF0t83ZTMF5YdY+Lez/0mksNXA2Rpa4XaQQRZKzlwZ5Ql+BDL3DM5hux1j2i9/mtzHMPMEz4ux1x+E7loKjbi4zjfoy75azs5pEdTqNAH/mUxKecPaHNILSAR2JCK35GzGYniCV12PIDSTo03sBqk0cOzqL7ojRQvIKlIzCVBUoQIiyqubcrtqGl8YAkGt+23Aq1KEi4TcHaELPC5jix4Ic0kH/4vCbGbcsNqGF7ABKBcEDf3FKqohcxxjkbZzdCNx+SpM2dfYWRV6mNClQmdRvYNiLqeVsrDYXG0L7wnRh1W2aNsrDdrgCNfokSmDya4rcOpnH2ek3wSZn72K1xIv6FKhSZIIQhAAlnyn9dF5b0zEs+U/rovLemjq0/NRS0IQqNw2cM66PzG+qecPshIzDOuj8xvqnnD7IUsyfEO6MiEKQkZ4r+UmnDZmSe80g/BU5MLlOiu2N3Y4peqkbmpK8aBSCRqNCNx71CCmdTVjmyjiPP0zH73Ws7tBHA967KpHJfKeakbwEpPzCvBUs+ezx4ZtI8ufZS1yVmfa2VtWWskka3m26NeQN6z8n2Lv58xyyPcHN0D3k6oo9f4suXxjMQUBCRzAqpm/K4qGl8YAlGu7f3FWtFkFQm4O0IKWItJa8EOBsb6aqEyM85Z5wGeEdNou5oHtJbW7u49xVpm3gzrJH8khdPLFZzVTG+9gXWPZY30+dly17ifZwPY5p+qD1yRuDH3G4EL0tXDJNqNru1rT9FtKD51qm0CEIQIEs+U/rovLemYlnyn9dF5b00dWn5qKWhCFRuGzhnXR+Y31Tzh9kJG4Z10fmN9U8ofZClmT4h3RkUhQpSM8o/Kb1TfxpbJg8p81mxN7XOKXypG3peWCChCZ1jE5Lh0JT/jV8VT5OKXYptr35C74K2FSzA2HeRil5Qvvp8pnquLg9WYpmSdjhfwXa5Qvvh8pnqq0n6GthjxYUh8Uswc1rhrcA/NZgqrye4nzsGw49OPTvtwVrupMXLHhk4ghCCgg8vYCNUq8+YJzMvOsFo38OAKaq4mb6ETUzxxDSR4hNHRrZHCaE2h274It62XpouQO0gKjck/pHdgB/s8XlM9FvhaeEx7MMbTvDGi3wW4FDPnZ/cyUIQgkEs+U/rovLemYSlZykVQdUNa2x2GOBt2po69PzUVJCEKjbNnDOuj8xvqnnD7ISKoX7MjD2Pb6hPKlkDmNLdxCTMrxDujOi6FxMx45HTxuJPSt0RxupOCMXJ0iicotcH1AYDcMb9SqqstXUOkeZHalzifBYlaN/DHggogtjD6R0sjYmauc4DTsvYn4LC1pJAGpO4DemXkfLXMjnpR+sI0HEAoI2MyxxLThlKIomRt0DWgLZKkDRQoMJu22KblC++HymeqrKs3KF98PlM9VWVSN/W8pHXytixpp2uv0Do7805aeYPaHNOhAKQavGRszbFqed2m5pJ08LoaOXdwcX1ruhkKFDXgi4Km6RlAtbEbc06+7Yd6LaVdzlijYad2vSeC0DjqEIvGrkqFJUe0be871W/lyiM1TGyxPSufAcVzL9v/ADcmRyc4NstNQ8auFhffbtVGznycGN2XaJthbwXsIKAoMK7BCEIAX2dMzzxTGCIgDZab27VQ5pXOdtOJJJ1JTaxrKENTKZpHPuQ0WBsNFofo8pvek+atNGhr7GPHFdOosboumb+jum96T/Uj9HdN70n+pKzp/n4xZKwYZm+ogbsCzmgaX3q3fo8p/ek+aP0eU/vSfNFkT2sM+jRWanPNU4abLVXayrfK7alcXE9p0TH/AEeU/vSfNbMORKVu9pd4lFkx2MMesUKoAndqe7VdbDMt1E5GywtGnSOgTVosv08XsRtHwuukxgGgFvABFk5PEH/VFZy7lCOns93Sk7TuB7lZw1ShScE8kpu2CChBQQKTlDP9sd5TPVVu3Der3nLLlTPUmWFgLdhouSBuWbKeTix3O1LRcHot3jxKo18exCGJdepSm4NPs7YifbwO5aj2lpsQQfiCn0IRut9NFzcRy/BP1kYv2jQos8lv30aF1gWcJYAGPG3GP9StsGfaYjpbTT2Wv6LmYhyea3hkt3G/quNJkWrB0DCPx2/kgHyMnXsWWvz/AAtb+qBceHZ8VQ8XxaSpcXynjoOA8F2qfItUTZwY0du1cqzYRkOGOzpjtu+iLHGWDF1XVlWyllh87xJILRDt3uP5Jq08IY0NAsALABTDAGCzQAB2LIk2cefO8j69gQhCR4EaqV5uq9UZqYyb7NzcpkNrNAbqO0aoKUXLsWNC41DmGKSTmXbTJfcfofpouzdAnFrowQi6lAiFK52MYqymYZJL2vbQXK2aSoD2h7b2c0EdtkBXqZ0IRdAAhCEACEIugLJULDU1DWNL3mzWgknuC5E2Y2MG3Ix7WfsuIGy7wtqPigai32O4UALWdWtEfO67Oztd9rXXqjqRIxkjfZc1rh22I4oBpo2EFF0IEQpCgqHHS4QM9KAuJh2YmSzupw17Xt33Asu4gGq7ghCECJULHUybLS6xNhew3rlYFjzKou2GuGwbHatvQNRbVnXVCxH+92fhar81L3GIWvxZjXagsZuJBTR64PX4PGORulxNogvdoYXEbu/VWaXMjWVDaV0b9o7nXFiq3WVjsOqmsZ0opNSDYuuf8S94s8HE4SOIBQe7jxVfZIsFLmRr6k0hjc14vqSLWAuD8llqcwtaXbMbntYbPeCLA9lt6rUBH9Mv/Af9gWKukmopZHhokppXHatqAeNzwVURyouvgsGK5hhEDJpInPjf3DTsvdbNbj7IadtRzbiwtGgt0Qqxmp8Zw5hhPQ222/JbWYP7rZ5bFILFF1fvR05c3xtYyV0b+beQNrSwPhvXWxDF44oxI7Xatsgb3E8FRsxADDYSLf8AAvWPTuEtGwC4DWHZuACdNLqqHyYvt7lxw7G2yOMbmujkGuybXt26LWnzOxrTJzbzEHEc4LWuDa1t6482G1ElY2oMYjj5stcdthNrb1yxUyUYdDONulkJLXjhtHff4pUTyosu1VjTWtjLWue+QXY0W2rWvx7lGFY42Z74w1zXMttA8L8FXsfpHkQVNG7aMUQs3iWHS9votvJ2JRzyPfbYn2AHt4b96RLxpRbN3O0D3Ucmxe4F9N5AFyuPgmJR1tO6mksJWt2RfttYFW6uqI2NvKbNLmt13XcbAKg5ry86nd9spSdkEOcBwtrfwTRWHhkuF9H6HUztUyQUjYmjRw5tz+zRdDDMYEVGySZhY1scYBJHS0G6y4Wb6znsOhldvc5nzsfyK7rGwfYYzUAGMQxk/AJhJLgSfezJHmqPnGRSMfGXi7SSCDfduuoxPNTIJhA6N93W2XXFjdVHGZS6ppHbIa3o7I0vbgt7M4H9I0v+VKiuTG18Flo8xsfMadzHMfa42rWPyWXEcbbFI2ENL5HC4a0jd266KsVOmKtA90KaJ+1ij9rgywRQuTGzDgM4diMr9W9HUHhZd6fN0YDpAxzo2v2S8EWB7xv+i4mEAf0lMDa2yVizC+L7POylYBGHjbcCLF3Yii5wUpIttZjzGQCoa1z2EX0toPiuZFnaEmOzXnbNtxsD3rmgf9JF/wB2Fv5IomfZGOIaXWJBNkUebxxjFnQqseaXvhYxz3NaS8gizbjjdcHk3fd9QRuMhXjJZ2pKsnU7bhr2L3ycjp1A4CUoLcVGMkXoKlVuD1RrhVNjYWNDRYyWcbFXayCpOWE3H9lMqsvT1dS2Wo2WRtGjGm5+azY5gMxqoqiANIYLEF1lbgFATsvnS/RSosFqRX/ai1mw7Q2dqNLLcpqCqj5xrmsex7nEDasW34k8VarKAjiDmt/opWL5bmNIynhDSdvacdrZA7gsuJ4VUyUTKcMaHiwPT4BXCymyLDnS9fko+JYDUyUUcGy3bY7XpCxC28Qy/LLDC4WbPFs/tXBtwurYpRYc6RwuYqJbc60MABu0O2to2sD4LmU+E1Qp/s0rGPBbsh20OiCd9jvKuCEWLmMqz8IqI5IXQbOzHDsOBNtrw7Fs4ThThO+pe0MLm7IYCCPEkbyu+pKBPJL/AE4masNfUQGKM2Jew38DqfgtWSmqzCadzWOuzZ5zbIFrW1aQbqyqLJAptFWzDlxz6NtPARtMIIubBx148N60cRy9Uy0zI+i1zWsAbtktsN+qu9kBOxrNJKiiV+A1UjqeQNaDCGgs2uwDW/wWTFcGq5KmKcMZaPZ/b10V4UIsrnyKfU4NUGuZUNa0sDRtdLXwF1nrsFlbVCqgDTcWe0usrSgIsXOkUemwGqbUyTEM2ZGEXDiSLha9NlqqFNLTODLveXbe1v8AFMGyE7Hz5exSxg9V9i+zFrNoNDR0/qutlKhmhgEUzWgi+519F3UapWS8jaoqVLgk8E8r4Q10crTvdbZKMmYRUU8kvPNbsvcSCHX+itqmyLG8zaa9wQhCR5AhCEACEIQAIQhAAhCEACEIQAIQhAAhCEACEIQAIQhAAhCEACEIQAIQhMAQhCQH/9k=;" parent="ckFxBgVPUirz9f_X5Qli-6" vertex="1">
          <mxGeometry x="26.149999999999977" y="52" width="67.7" height="68" as="geometry" />
        </mxCell>
        <mxCell id="0d5R8pZXhQQyxfGdjJ8H-5" value="" style="shape=image;verticalLabelPosition=bottom;labelBackgroundColor=default;verticalAlign=top;aspect=fixed;imageAspect=0;image=data:image/png,iVBORw0KGgoAAAANSUhEUgAAAOEAAADhCAMAAAAJbSJIAAAAyVBMVEX6nRz////+/v/6mAD6nB/6nhn32aj+//38///0tVf7mhL7nBv//v75lgD4mADynxL31aT30p70687vlAD///j2umL33bXwsE3679j3yY730aL0yYr9mx7wmAD3nhz2mwD1py/+/fH36cPz05j7kgD66cvzoR72wHX3pTX39OLxqz74//ryoxD55ML3rkvyu2f02aP48dPzqy74sFT4qELzzoj1wnPz36/99+juxHfopzvvsln21qzrskj58erzkAD86NX5x4/2xYEcIFTKAAAJA0lEQVR4nO2bD1PbOBOHLUuKhWQphIQ0EEcmYNIGCgGuFHrtXe7N9/9Q78pOIJJDh7qhMMw+M52ma1vSz7v6t3KjCEEQBEEQBEEQBEEQBEEQBEEQBEEQBEEQBEEQBEEQBEEQBEEQBEEQBEEQBEEQBEEQBEEQBEFekczySGWZYtza127LC5HlejSZjLRh2Ws35WXg5uNxj5De6WIkX7stL4L5NCWCkJgIcX9GX7s128fqD+ckTkhJInakZa/dpO3Css9JHJNKYUyIOOLvTGGkLwR4MK58CH/vFe9sPOVHZYhWPkyc1A/vbLShJ0t1D7Te2WCj+76+WJzq127TdtF7vg9TMX1nCs2xrzCJB+a127RddIukfpReNO6HKuKML4F/qG22szlyP4zSr43HUq4p1SuofiOzjjX3wnPh2DR99+qyddg5XLLb2T16G05kZrYukIiPjbuhGa4Hg3grE6uyepf0RAKLmjiFgO3riDcsinYEWY+HN6LQWmlOBKxmYG2aCnLVbb5DpC0Rr4fDG1GoOGP6w56Aly/E9Q6FXX7TlTftrw/Lb0ZhJUdPFp3O4qhQSjHedIDQpyRNt6RQsdpIDO++bBmDeShz6Rbrfj66g7npyjnIut0RU8tyouW8pSSl0v2AiUwtH7CRm9ecDWBKVXVmDH5kXDHGHopncAuL9GDNhzAF/VMq5FGDuM9s9jAasCXKaSoLZDyT0iWWolWjSjEOsEsJTlLVLpepiWLObUC2RK02wBZ+q0qt+5utJnDFbRZxxSWI5NVe0ro7M6WnDztpN2yJS6ew7ovnwJiUZgldoXn5ylRetG8+fL+cjDRVVj28CZnr/Gxn5+zI2VeByFlOA6SWZau5XCvbFU9NWZZVWU67k8sPf32ZQPWlDeoxuTHzHnkcaZJEnFG4IadZk7E5378dhtw6hyk9OZn2qiruWzfFKnemipvD6XIPOLi6KWzlG2ZrxQyHn9w1uTM8WAQXFu4VWjOaXdxXM974YqZLP5mvJ7u7rX6yPpYm5Mo9dHA7aRCliv4gIYJ0M0VH/fUJiRy3ufOiMken6zOVuCsmpUberpVDyI5rNN2tX5hqpqQ5GD8OJomYXlLoHfp6Qzkrjhr4UG2qv2eU+T4mvbUB+5yM265/mmHiCU/EQGcwdmxQCNNipbBT/n4kjslAc3N2L5LzlU1AZyPfdbkFe4qYNFm8PaFQf3WxsbaOdq3qWgWbXOGtrkFuK4fOE3FL4rCcB4Wp9wzcNyj0N0927JYJPSv/jMK0V3ytUkqPDUvSWCxk0V8b4io7/HtSRqnd0KKfKLwFQUSsTQlQn4B13tYVMnoFhad+UeO/nbo0rGFQDF1DavYDCgONhCgVqfCvVAqvgtcCfW7wverMXlmpSEaZGcTQHj9OElgIOhr1w0j/gFEraMH436Cly5r+cREa14Lx1GQws1lSf1WVwkPiraLd2/u3B60OywHDfk4HwgseZ09WdX5qMpbK4WAqgtEjiUWS1HtVWmYIxXl4ZWqUtdxeX/fCK5XC28HUN8cw28EeJE2D+1NyUpjTMRCqH5f0bpqsAq3W89Mwv+LK7NUUwsxLklrlMDCNJMtgFCr+DrOJpcJI0rmXhUvi1Hmw1yM1P/ZN1p3rohvWezOHrf4cJrEGCqNywvJfZir6bT2auSasm8HVi1E3vxJC+NG4XE2p2oRRKVTlhBFwfTkyZwN/FiHi2CXnmMq9W6EP/ebeIlTo8pywEyq+wSTl2clHDQvl4r+wtVb9kkIX69OuhLVt8EBCygSrenGF7tQoqlYpfhSNuxnM7vkwDMb2ryokZKYjC+tV/2UJsvdnFMbJqNwtdZNAyp0Gbyk5C3z7qwrdZsFY2Dkx6vXPOE5eTqHPfbXO74aDTSd3o7XcD6f9drXveEohV7V+ONXlhtAE5wBkj3LXD7lv/e09fk3htMqR1RQelBvb96BwoDcpjMlwWwrjwasrVBsUEjIsk/S/rzCBGtgb9KFbgLJtKHQrb11mZlAhKkSFqBAVokJU+FyFcbw8t3i3CpNkWdC7VRgL8vGPKYy2q5A+z4eCdJp/PgbbUE5bocIC6rFyPo69HJz4n8kixcx+mDJty/KIUE18MwSXK9/CI55C4VbeVoE99xSmsMen7kiRt4PE0flgrnjDE2UrbUZbfp5TQP2cMQY+9KUMDVfWgg8DrDsezTj40PN6Qr5TxrMs4kEWIyHXhQIpVt/594s9Ci0C5X52M45Fa+6O6x5P+H7Bh1FOTUv4GeB/i9xdGIVZjI4uIiaLRWAWR5RGPNJ04ufgErJfUHfSTYsrz56K8ZyCRFlc+ErEdK4VxIkZx145SSLGrYPF4q8G3ZGZ2eHhue8qIfqHnJnhqfBPYZLe4Tcpv3TuEz97L6YnJ5LZTmcvSEom407nc6Zmnd0gH5vExydWyQO/ewgot9+ZgUL/iC2F6SIuvz45bNIda52wop11a6lfaP8prceosyej+jBT8bk8+9lwSjDJdC3p7N5Qn3IGUR3Xk+4xBFEThRtO11Kn0Gyq/ymFvZ8rrJ8QlArHG+yiTzMrj0hwOrNU2MiHGxRCWW21WaH5icJNOn6ucIO5VMiKftBD/oxCMDdS2PlFhTCBqdx9bhI81ixK3adocQ1CuByNwwswyrsoFeHdAsZGs8zQr9tTAITQQ5Gm4TMJTDF6LGp1J+SuVCHzY3dumK5O86oznMMmnwLq+pcKjnak64dMRGz0oWO08UsF56rNUQI18A1RAtyVKpTVs+tqhII3uzqj2m3gQya//mgF7MKfdiSvQnurdTc06qxuhkdkZuG53d3aExMrZ7UaWq0fP3hmanc7FqVCa7nUX277g+VpXm98P927mDVZnnJafo0bfu2TKVaENrhJcsurz3a9C7lWypra/Q7FuAwvOAwsTMsiA4qlCFgEcmm0nptRno9Gpgtl5fnL/3+4pt+L/hZqKx8IszU22dbtT93/XPtzn9kufI1NtnX7U/c/1/7cZ7aLWmOTbd3+1P3PtT/3GQRBEARBEARBEARBEARBEARBEARBEARBEARBEARBEARBEARBEARBEARBEARBEARBEARB3jz/B5VTwfdJC24IAAAAAElFTkSuQmCC;" parent="ckFxBgVPUirz9f_X5Qli-6" vertex="1">
          <mxGeometry x="32.14999999999998" y="323" width="64" height="64" as="geometry" />
        </mxCell>
        <mxCell id="ckFxBgVPUirz9f_X5Qli-13" value="" style="group" parent="1" vertex="1" connectable="0">
          <mxGeometry x="1036" y="1009" width="419" height="290" as="geometry" />
        </mxCell>
        <mxCell id="quVHmLEPleR1YJUEZjZv-18" value="" style="rounded=1;whiteSpace=wrap;html=1;fillColor=#e1d5e7;strokeColor=#9673a6;" parent="ckFxBgVPUirz9f_X5Qli-13" vertex="1">
          <mxGeometry width="419" height="290" as="geometry" />
        </mxCell>
        <mxCell id="quVHmLEPleR1YJUEZjZv-20" value="&lt;b&gt;TECHNISIGHT&lt;/b&gt;" style="text;html=1;align=center;verticalAlign=middle;resizable=0;points=[];autosize=1;strokeColor=none;fillColor=none;" parent="ckFxBgVPUirz9f_X5Qli-13" vertex="1">
          <mxGeometry x="19.622589531680433" y="9.269406392694009" width="99" height="26" as="geometry" />
        </mxCell>
        <mxCell id="0d5R8pZXhQQyxfGdjJ8H-54" value="NLP Models and&amp;nbsp;&lt;br&gt;Candle&lt;br&gt;Patten Recognization" style="sketch=0;outlineConnect=0;fontColor=#232F3E;gradientColor=none;fillColor=#01A88D;strokeColor=none;dashed=0;verticalLabelPosition=bottom;verticalAlign=top;align=center;html=1;fontSize=12;fontStyle=0;aspect=fixed;pointerEvents=1;shape=mxgraph.aws4.sagemaker_model;" parent="ckFxBgVPUirz9f_X5Qli-13" vertex="1">
          <mxGeometry x="93.00487603305783" y="78.0662557077626" width="73.8732782369146" height="73.8732782369146" as="geometry" />
        </mxCell>
        <mxCell id="ckFxBgVPUirz9f_X5Qli-8" value="Model Trainer" style="rounded=1;whiteSpace=wrap;html=1;" parent="ckFxBgVPUirz9f_X5Qli-13" vertex="1">
          <mxGeometry x="235" y="171" width="120" height="60" as="geometry" />
        </mxCell>
        <mxCell id="ckFxBgVPUirz9f_X5Qli-9" value="" style="verticalLabelPosition=bottom;html=1;verticalAlign=top;strokeWidth=2;shape=mxgraph.lean_mapping.physical_pull;pointerEvents=1;" parent="ckFxBgVPUirz9f_X5Qli-13" vertex="1">
          <mxGeometry x="367" y="181" width="40" height="40" as="geometry" />
        </mxCell>
        <mxCell id="ckFxBgVPUirz9f_X5Qli-10" style="edgeStyle=orthogonalEdgeStyle;rounded=0;orthogonalLoop=1;jettySize=auto;html=1;dashed=1;dashPattern=8 8;" parent="ckFxBgVPUirz9f_X5Qli-13" source="ckFxBgVPUirz9f_X5Qli-8" target="0d5R8pZXhQQyxfGdjJ8H-54" edge="1">
          <mxGeometry relative="1" as="geometry" />
        </mxCell>
        <mxCell id="ckFxBgVPUirz9f_X5Qli-17" style="edgeStyle=orthogonalEdgeStyle;rounded=0;orthogonalLoop=1;jettySize=auto;html=1;" parent="1" source="ckFxBgVPUirz9f_X5Qli-14" target="0d5R8pZXhQQyxfGdjJ8H-22" edge="1">
          <mxGeometry relative="1" as="geometry">
            <Array as="points">
              <mxPoint x="1236" y="591" />
              <mxPoint x="1236" y="176" />
            </Array>
          </mxGeometry>
        </mxCell>
        <mxCell id="ckFxBgVPUirz9f_X5Qli-18" style="edgeStyle=orthogonalEdgeStyle;rounded=0;orthogonalLoop=1;jettySize=auto;html=1;fillColor=#d5e8d4;strokeColor=#82b366;" parent="1" source="ckFxBgVPUirz9f_X5Qli-14" target="0d5R8pZXhQQyxfGdjJ8H-54" edge="1">
          <mxGeometry relative="1" as="geometry">
            <Array as="points">
              <mxPoint x="1008" y="1124" />
            </Array>
          </mxGeometry>
        </mxCell>
        <mxCell id="ckFxBgVPUirz9f_X5Qli-14" value="" style="sketch=0;points=[[0,0,0],[0.25,0,0],[0.5,0,0],[0.75,0,0],[1,0,0],[0,1,0],[0.25,1,0],[0.5,1,0],[0.75,1,0],[1,1,0],[0,0.25,0],[0,0.5,0],[0,0.75,0],[1,0.25,0],[1,0.5,0],[1,0.75,0]];outlineConnect=0;fontColor=#232F3E;fillColor=#8C4FFF;strokeColor=#ffffff;dashed=0;verticalLabelPosition=bottom;verticalAlign=top;align=center;html=1;fontSize=12;fontStyle=0;aspect=fixed;shape=mxgraph.aws4.resourceIcon;resIcon=mxgraph.aws4.managed_streaming_for_kafka;" parent="1" vertex="1">
          <mxGeometry x="969.24" y="552" width="78" height="78" as="geometry" />
        </mxCell>
        <mxCell id="ckFxBgVPUirz9f_X5Qli-15" style="edgeStyle=orthogonalEdgeStyle;rounded=0;orthogonalLoop=1;jettySize=auto;html=1;entryX=0.5;entryY=0;entryDx=0;entryDy=0;entryPerimeter=0;fillColor=#d5e8d4;strokeColor=#82b366;" parent="1" source="0d5R8pZXhQQyxfGdjJ8H-13" target="ckFxBgVPUirz9f_X5Qli-14" edge="1">
          <mxGeometry relative="1" as="geometry" />
        </mxCell>
        <mxCell id="ckFxBgVPUirz9f_X5Qli-16" value="Market specific news" style="edgeLabel;html=1;align=center;verticalAlign=middle;resizable=0;points=[];" parent="ckFxBgVPUirz9f_X5Qli-15" vertex="1" connectable="0">
          <mxGeometry x="0.1214" y="2" relative="1" as="geometry">
            <mxPoint as="offset" />
          </mxGeometry>
        </mxCell>
        <mxCell id="ckFxBgVPUirz9f_X5Qli-23" style="edgeStyle=orthogonalEdgeStyle;rounded=0;orthogonalLoop=1;jettySize=auto;html=1;" parent="1" source="ckFxBgVPUirz9f_X5Qli-21" target="0d5R8pZXhQQyxfGdjJ8H-54" edge="1">
          <mxGeometry relative="1" as="geometry" />
        </mxCell>
        <mxCell id="ckFxBgVPUirz9f_X5Qli-24" style="edgeStyle=orthogonalEdgeStyle;rounded=0;orthogonalLoop=1;jettySize=auto;html=1;entryX=0.5;entryY=0;entryDx=0;entryDy=0;" parent="1" source="ckFxBgVPUirz9f_X5Qli-21" target="ckFxBgVPUirz9f_X5Qli-8" edge="1">
          <mxGeometry relative="1" as="geometry" />
        </mxCell>
        <mxCell id="ckFxBgVPUirz9f_X5Qli-21" value="" style="sketch=0;points=[[0,0,0],[0.25,0,0],[0.5,0,0],[0.75,0,0],[1,0,0],[0,1,0],[0.25,1,0],[0.5,1,0],[0.75,1,0],[1,1,0],[0,0.25,0],[0,0.5,0],[0,0.75,0],[1,0.25,0],[1,0.5,0],[1,0.75,0]];outlineConnect=0;fontColor=#232F3E;fillColor=#8C4FFF;strokeColor=#ffffff;dashed=0;verticalLabelPosition=bottom;verticalAlign=top;align=center;html=1;fontSize=12;fontStyle=0;aspect=fixed;shape=mxgraph.aws4.resourceIcon;resIcon=mxgraph.aws4.managed_streaming_for_kafka;" parent="1" vertex="1">
          <mxGeometry x="1982.5" y="797" width="78" height="78" as="geometry" />
        </mxCell>
        <mxCell id="ckFxBgVPUirz9f_X5Qli-22" style="edgeStyle=orthogonalEdgeStyle;rounded=0;orthogonalLoop=1;jettySize=auto;html=1;entryX=0.5;entryY=0;entryDx=0;entryDy=0;entryPerimeter=0;fillColor=#d5e8d4;strokeColor=#82b366;" parent="1" source="quVHmLEPleR1YJUEZjZv-3" target="ckFxBgVPUirz9f_X5Qli-21" edge="1">
          <mxGeometry relative="1" as="geometry" />
        </mxCell>
        <mxCell id="ckFxBgVPUirz9f_X5Qli-25" value="Live Market Data" style="edgeLabel;html=1;align=center;verticalAlign=middle;resizable=0;points=[];" parent="ckFxBgVPUirz9f_X5Qli-22" vertex="1" connectable="0">
          <mxGeometry x="0.4566" y="-1" relative="1" as="geometry">
            <mxPoint as="offset" />
          </mxGeometry>
        </mxCell>
        <mxCell id="ckFxBgVPUirz9f_X5Qli-30" style="edgeStyle=orthogonalEdgeStyle;rounded=0;orthogonalLoop=1;jettySize=auto;html=1;entryX=0;entryY=0.5;entryDx=0;entryDy=0;" parent="1" source="ckFxBgVPUirz9f_X5Qli-26" target="0d5R8pZXhQQyxfGdjJ8H-37" edge="1">
          <mxGeometry relative="1" as="geometry" />
        </mxCell>
        <mxCell id="ckFxBgVPUirz9f_X5Qli-31" value="Suggested trades" style="edgeLabel;html=1;align=center;verticalAlign=middle;resizable=0;points=[];" parent="ckFxBgVPUirz9f_X5Qli-30" vertex="1" connectable="0">
          <mxGeometry x="-0.2098" y="1" relative="1" as="geometry">
            <mxPoint as="offset" />
          </mxGeometry>
        </mxCell>
        <mxCell id="ckFxBgVPUirz9f_X5Qli-26" value="" style="sketch=0;points=[[0,0,0],[0.25,0,0],[0.5,0,0],[0.75,0,0],[1,0,0],[0,1,0],[0.25,1,0],[0.5,1,0],[0.75,1,0],[1,1,0],[0,0.25,0],[0,0.5,0],[0,0.75,0],[1,0.25,0],[1,0.5,0],[1,0.75,0]];outlineConnect=0;fontColor=#232F3E;fillColor=#8C4FFF;strokeColor=#ffffff;dashed=0;verticalLabelPosition=bottom;verticalAlign=top;align=center;html=1;fontSize=12;fontStyle=0;aspect=fixed;shape=mxgraph.aws4.resourceIcon;resIcon=mxgraph.aws4.managed_streaming_for_kafka;" parent="1" vertex="1">
          <mxGeometry x="1516" y="1085" width="78" height="78" as="geometry" />
        </mxCell>
        <mxCell id="ckFxBgVPUirz9f_X5Qli-27" style="edgeStyle=orthogonalEdgeStyle;rounded=0;orthogonalLoop=1;jettySize=auto;html=1;entryX=0;entryY=0.5;entryDx=0;entryDy=0;entryPerimeter=0;" parent="1" source="0d5R8pZXhQQyxfGdjJ8H-54" target="ckFxBgVPUirz9f_X5Qli-26" edge="1">
          <mxGeometry relative="1" as="geometry" />
        </mxCell>
        <mxCell id="ckFxBgVPUirz9f_X5Qli-29" style="edgeStyle=orthogonalEdgeStyle;rounded=0;orthogonalLoop=1;jettySize=auto;html=1;entryX=0.5;entryY=0;entryDx=0;entryDy=0;entryPerimeter=0;" parent="1" source="0d5R8pZXhQQyxfGdjJ8H-22" target="ckFxBgVPUirz9f_X5Qli-26" edge="1">
          <mxGeometry relative="1" as="geometry">
            <Array as="points">
              <mxPoint x="1372" y="452" />
              <mxPoint x="1555" y="452" />
            </Array>
          </mxGeometry>
        </mxCell>
        <mxCell id="ckFxBgVPUirz9f_X5Qli-32" value="News Sources" style="text;html=1;align=center;verticalAlign=middle;resizable=0;points=[];autosize=1;strokeColor=none;fillColor=none;" parent="1" vertex="1">
          <mxGeometry x="476.5" y="515" width="95" height="26" as="geometry" />
        </mxCell>
      </root>
    </mxGraphModel>
  </diagram>
</mxfile>
